<svg width="120" height="120" viewBox="0 0 120 120" fill="none" xmlns="http://www.w3.org/2000/svg"><g filter="url(#filter0_d)"><path fill-rule="evenodd" clip-rule="evenodd" d="M60 100c27.614 0 50-22.386 50-50S87.614 0 60 0 10 22.386 10 50s22.386 50 50 50zm25.105-26.574a.768.768 0 01.347.757.777.777 0 01-.54.63l-4.695 1.32 3.477 5.48a.731.731 0 01.103.59.776.776 0 01-.36.487l-3.81 2.207a.822.822 0 01-.385.103.768.768 0 01-.655-.36l-3.734-5.85-4.08 3.053a.769.769 0 01-.808.078.79.79 0 01-.424-.693v-16.45c0-.282.154-.539.398-.68a.748.748 0 01.783.026l14.383 9.302zM78.28 75.39a.8.8 0 01.514-.462l4.054-1.13-11.779-7.608v13.498l3.516-2.63a.769.769 0 01.603-.142.765.765 0 01.513.347l3.76 5.928 2.476-1.437-3.593-5.672a.776.776 0 01-.064-.692z" fill="#fff"/></g><path d="M44.672 51.256h-1.92V55h-1.136v-8.416h1.136v3.696h1.936l2.96-3.696h1.232l-3.312 4.08L49.12 55h-1.344l-3.104-3.744zm13.12-4.672V55h-1.135v-7.408h-4.032l-.112 2.08c-.085 1.75-.288 3.093-.608 4.032-.32.939-.89 1.408-1.712 1.408-.224 0-.496-.043-.816-.128l.08-.976a2.2 2.2 0 00.4.064c.437 0 .768-.203.992-.608.224-.405.373-.907.448-1.504.075-.597.139-1.387.192-2.368l.144-3.008h6.16zm3.23 0h1.136v6.688l5.616-6.688h1.008V55h-1.136v-6.688L62.046 55h-1.024v-8.416zm14.072 4.672h-1.92V55h-1.136v-8.416h1.136v3.696h1.936l2.96-3.696h1.232l-3.312 4.08L79.542 55h-1.344l-3.104-3.744z" fill="#000"/><defs><filter id="filter0_d" x="0" y="0" width="120" height="120" filterUnits="userSpaceOnUse" color-interpolation-filters="sRGB"><feFlood flood-opacity="0" result="BackgroundImageFix"/><feColorMatrix in="SourceAlpha" values="0 0 0 0 0 0 0 0 0 0 0 0 0 0 0 0 0 0 127 0"/><feOffset dy="10"/><feGaussianBlur stdDeviation="5"/><feColorMatrix values="0 0 0 0 0 0 0 0 0 0 0 0 0 0 0 0 0 0 0.3 0"/><feBlend in2="BackgroundImageFix" result="effect1_dropShadow"/><feBlend in="SourceGraphic" in2="effect1_dropShadow" result="shape"/></filter></defs></svg>