<svg width="1920" height="1034" viewBox="0 0 1920 1034" fill="none" xmlns="http://www.w3.org/2000/svg"><path d="M333.624 712.482l2.503-3.984a7.029 7.029 0 003.768 1.091 7.14 7.14 0 003.388-.856 7.014 7.014 0 002.62-2.458v-.004a7.032 7.032 0 001.094-3.768 7.141 7.141 0 00-.857-3.386 7.018 7.018 0 00-2.456-2.618 7.037 7.037 0 00-3.763-1.088 7.157 7.157 0 00-3.391.856 7.035 7.035 0 00-2.622 2.458l-.002.004a7.022 7.022 0 00-1.088 3.761 7.14 7.14 0 00.857 3.391 7.01 7.01 0 002.456 2.62l-.004-.003-2.503 3.984-2.507 3.983a16.441 16.441 0 01-5.724-6.114 16.55 16.55 0 01-1.986-7.861 16.422 16.422 0 012.537-8.775l-.001.002a16.42 16.42 0 016.115-5.729 16.548 16.548 0 017.863-1.988 16.44 16.44 0 018.771 2.533 16.41 16.41 0 015.728 6.112 16.53 16.53 0 011.987 7.858 16.459 16.459 0 01-2.537 8.78v-.002a16.438 16.438 0 01-6.111 5.731 16.548 16.548 0 01-7.864 1.988 16.465 16.465 0 01-8.775-2.533l-.003-.002 2.507-3.983z" fill="#1E1E1F"/><path fill-rule="evenodd" clip-rule="evenodd" d="M194.322 237.898l-30.578-20.903-8.092 11.837 7.826 5.351-.392.573-12.388 18.122-1.147-.785 11.996-17.547-6.68-4.566-12.027 17.594 30.578 20.904 20.904-30.58zm-17.129 37.369l24.826-36.315a3.498 3.498 0 00.547-2.603 3.495 3.495 0 00-1.454-2.226l-36.315-24.825a3.49 3.49 0 00-2.601-.547 3.492 3.492 0 00-2.227 1.454l-24.827 36.316a3.498 3.498 0 00-.545 2.603 3.5 3.5 0 001.453 2.226l9.548 6.526-8.093 11.838-35.166-24.04 24.042-35.168 22.734 15.541.784-1.147-23.881-16.326-25.611 37.463 37.461 25.609 8.877-12.985 25.619 17.514a3.505 3.505 0 002.603.547c.899-.17 1.71-.7 2.226-1.455z" fill="#1E1E1F"/><g opacity=".03" fill="#fff"><path d="M1679.09 644.274c.43-.136.67-.293.9-.506.19-.189.37-.442.55-.805.32-.628.58-1.581.82-2.705.37-1.688.67-3.742 1.63-5.771a9.188 9.188 0 012.1-2.873c.94-.857 2.14-1.535 3.54-1.954a2.295 2.295 0 111.32 4.396c-.71.217-1.21.493-1.61.812-.34.279-.62.598-.87.988-.44.677-.77 1.59-1.04 2.664-.41 1.612-.64 3.522-1.33 5.428-.34.951-.83 1.925-1.6 2.789-.77.864-1.85 1.566-3.09 1.933a2.294 2.294 0 01-2.86-1.538 2.286 2.286 0 011.54-2.858zm-25.52 7.662c.43-.136.67-.293.9-.506.19-.189.37-.442.55-.805.32-.628.58-1.58.82-2.704.37-1.688.67-3.741 1.63-5.771a9.195 9.195 0 012.1-2.872c.94-.857 2.14-1.535 3.54-1.954a2.295 2.295 0 111.32 4.396c-.71.217-1.21.493-1.61.811-.34.28-.62.6-.87.989-.44.676-.77 1.589-1.04 2.663-.41 1.612-.64 3.522-1.33 5.428-.34.95-.83 1.924-1.6 2.788-.77.864-1.85 1.566-3.09 1.932a2.294 2.294 0 11-1.32-4.395z"/><path d="M1680.46 648.652a6.7 6.7 0 01-3.2.187 7.312 7.312 0 01-2.37-.909c-1.22-.714-2.18-1.623-3.08-2.499-1.33-1.321-2.54-2.581-3.68-3.256-.58-.343-1.11-.551-1.68-.639-.56-.085-1.18-.063-2.01.181a2.3 2.3 0 01-2.86-1.538 2.303 2.303 0 011.54-2.858c1.22-.369 2.42-.49 3.54-.383a8.7 8.7 0 012.71.718c1.43.639 2.57 1.554 3.57 2.46 1.48 1.366 2.69 2.745 3.73 3.495.51.38.94.596 1.3.687.36.088.67.101 1.17-.041a2.3 2.3 0 012.86 1.537 2.303 2.303 0 01-1.54 2.858zm-25.59 7.683a6.692 6.692 0 01-3.2.186 7.344 7.344 0 01-2.36-.909c-1.22-.715-2.18-1.623-3.08-2.498-1.33-1.323-2.54-2.581-3.69-3.256-.57-.343-1.1-.552-1.67-.64-.56-.085-1.18-.063-2.01.181l-.66-2.192 1 2.06a2.16 2.16 0 01-.34.132l-.66-2.192 1 2.06a2.304 2.304 0 01-3.07-1.066 2.299 2.299 0 011.41-3.198c1.22-.369 2.42-.49 3.54-.383.98.092 1.89.356 2.71.718 1.43.639 2.57 1.553 3.57 2.459 1.47 1.367 2.69 2.746 3.73 3.496.51.38.94.596 1.3.688.36.086.66.101 1.17-.042a2.287 2.287 0 012.85 1.538 2.287 2.287 0 01-1.54 2.858zm8.48 8.306a4.807 4.807 0 002.7-2.007c.61-.913.96-1.994 1.24-3.13.55-2.273.83-4.789 1.94-6.67.74-1.255 1.81-2.245 3.65-2.802l-.27-.879c0 .001 0 .002-.01.003-1.52.458-2.64 1.236-3.45 2.198-.81.964-1.31 2.097-1.67 3.269-.72 2.343-.92 4.872-1.73 6.669-.55 1.199-1.3 2.053-2.68 2.474l.26.88.02-.005zm-25.52 7.662a4.807 4.807 0 002.7-2.007c.61-.913.96-1.994 1.24-3.13.55-2.272.83-4.787 1.94-6.668.74-1.254 1.81-2.245 3.65-2.802l-.27-.879c0 .001 0 .002-.01.003-1.52.458-2.64 1.236-3.45 2.198-.81.963-1.31 2.097-1.67 3.269-.72 2.342-.92 4.872-1.73 6.668-.55 1.198-1.3 2.052-2.68 2.474l.26.879.02-.005z"/><path d="M1663.36 664.635c.01-.002.02-.004.02-.006l-.26-.88c-1.04.309-1.91.211-2.76-.145-.85-.357-1.67-.993-2.49-1.758-1.66-1.525-3.31-3.554-5.51-4.646-1.47-.727-3.21-1.002-5.24-.392 0 .002-.01.004-.02.006l.27.879c1.37-.412 2.53-.374 3.57-.068 1.04.309 1.98.902 2.88 1.636 1.79 1.464 3.34 3.483 5.21 4.674 1.24.793 2.69 1.194 4.33.7zm-25.56 7.677l-.13-.44-.13-.44c-1.04.309-1.91.209-2.76-.146-.85-.356-1.67-.993-2.49-1.759-1.66-1.524-3.31-3.552-5.51-4.645-1.47-.727-3.21-1.002-5.23-.393l-.03.007-.07.027.4.826-.19-.407.13.433c1.38-.412 2.53-.374 3.57-.067 1.04.308 1.98.901 2.87 1.635 1.8 1.463 3.35 3.483 5.22 4.674 1.24.792 2.68 1.195 4.33.701.01-.002.01-.005.02-.006z"/></g><g opacity=".03" fill="#fff"><path d="M745.609 718.972c-.518-.463-.91-.653-1.366-.78-.4-.107-.876-.149-1.491-.1-1.071.078-2.524.482-4.181 1.054-2.501.835-5.428 2.05-8.835 2.387-1.702.16-3.548.068-5.406-.497-1.859-.558-3.687-1.596-5.336-3.106a3.502 3.502 0 014.721-5.174c.844.766 1.594 1.198 2.323 1.469a6.186 6.186 0 001.98.371c1.229.04 2.685-.24 4.301-.731 2.436-.719 5.117-1.916 8.147-2.517 1.519-.288 3.174-.417 4.912-.079 1.734.329 3.494 1.183 4.952 2.529a3.503 3.503 0 01-4.721 5.174zm30.035 27.406c-.517-.462-.911-.653-1.367-.78-.398-.106-.875-.149-1.491-.1-1.07.078-2.521.482-4.179 1.053-2.5.836-5.426 2.05-8.834 2.387-1.701.16-3.546.069-5.406-.495-1.858-.56-3.685-1.597-5.334-3.107a3.503 3.503 0 014.721-5.174c.844.766 1.594 1.198 2.321 1.469a6.197 6.197 0 001.981.37c1.228.041 2.683-.239 4.3-.731 2.436-.718 5.116-1.916 8.146-2.515 1.518-.289 3.174-.417 4.912-.079 1.733.328 3.493 1.182 4.95 2.528a3.501 3.501 0 11-4.72 5.174z"/><path d="M750.268 713.745c1.278 1.159 2.219 2.572 2.753 4.044.475 1.286.653 2.585.666 3.812.018 2.154-.418 4.124-.861 5.986-.687 2.779-1.387 5.35-1.372 7.381 0 1.019.145 1.882.473 2.691.333.807.849 1.605 1.815 2.492a3.5 3.5 0 01.226 4.947 3.5 3.5 0 01-4.947.227c-1.441-1.312-2.539-2.785-3.276-4.336a13.16 13.16 0 01-1.182-4.106c-.286-2.375.017-4.587.423-6.6.63-3.007 1.481-5.682 1.652-7.623.096-.97.038-1.707-.122-2.246-.17-.544-.389-.95-.969-1.495a3.501 3.501 0 114.721-5.174zm30.112 27.472c1.279 1.159 2.218 2.574 2.751 4.045.474 1.285.652 2.584.666 3.812.017 2.152-.419 4.123-.861 5.983-.688 2.781-1.387 5.351-1.372 7.382 0 1.018.144 1.88.471 2.688.334.809.849 1.605 1.814 2.491l.001.001-2.354 2.58 1.916-2.919c.217.143.365.273.438.339l-2.354 2.58 1.916-2.919a3.503 3.503 0 11-4.283 5.513l-.001-.001c-1.44-1.31-2.538-2.784-3.275-4.334a13.165 13.165 0 01-1.181-4.106c-.285-2.372.017-4.584.423-6.597.63-3.008 1.481-5.682 1.653-7.625.095-.969.038-1.706-.122-2.246-.171-.542-.389-.95-.969-1.494a3.502 3.502 0 114.723-5.173zm4.234-17.601c-1.449-1.323-3.09-1.898-4.751-1.973-1.67-.078-3.362.309-5.068.834-3.407 1.062-6.921 2.666-10.254 2.687-2.224.012-4.358-.61-6.525-2.575l-.944 1.035.012.01c1.795 1.638 3.689 2.49 5.581 2.792 1.897.305 3.773.073 5.591-.371 3.631-.897 7.099-2.618 10.092-2.955 2.001-.221 3.706.091 5.339 1.566l.944-1.035a.122.122 0 00-.017-.015zm30.035 27.406c-1.448-1.322-3.09-1.898-4.75-1.972-1.671-.079-3.362.309-5.069.833-3.406 1.061-6.919 2.664-10.251 2.686-2.224.012-4.358-.61-6.524-2.574l-.944 1.034.013.012c1.794 1.637 3.688 2.489 5.579 2.79 1.896.306 3.773.073 5.591-.371 3.629-.897 7.098-2.617 10.09-2.955 2-.22 3.704.091 5.338 1.566l.944-1.034-.017-.015z"/><path d="M784.595 723.601l-.026-.023-.944 1.035c1.221 1.122 1.772 2.335 1.972 3.726.197 1.389.006 2.959-.35 4.638-.699 3.364-2.061 7.114-1.761 10.86.198 2.49 1.198 4.979 3.588 7.159l.025.022.944-1.035c-1.62-1.481-2.474-3.019-2.89-4.626-.413-1.607-.374-3.302-.114-5.046.513-3.493 1.94-7.109 2.034-10.491.068-2.24-.542-4.452-2.478-6.219zm30.086 27.45l-.473.516-.472.517c1.22 1.121 1.77 2.336 1.97 3.727.198 1.388.006 2.959-.35 4.638-.699 3.362-2.06 7.113-1.761 10.859.198 2.489 1.198 4.977 3.586 7.156l.026.023.089.07.769-1.172-.379.578.465-.511-.001-.001c-1.619-1.48-2.473-3.018-2.888-4.624-.414-1.606-.374-3.3-.113-5.046.512-3.492 1.939-7.107 2.033-10.489.068-2.24-.541-4.453-2.476-6.219l-.025-.022z"/></g><path fill-rule="evenodd" clip-rule="evenodd" d="M1262.96 87.02l44-25.385a3.534 3.534 0 001.3-4.837 3.544 3.544 0 00-4.84-1.298l-44 25.385a3.542 3.542 0 00-1.3 4.837 3.545 3.545 0 004.84 1.298zm23.31 3.424l-44.01 25.385.71 1.227 44.01-25.385-.71-1.227z" fill="#1E1E1F"/><g filter="url(#filter0_f)"><path fill-rule="evenodd" clip-rule="evenodd" d="M76.069 890.337c-4.87 6.662-12.225 11.445-21.02 12.822a5.996 5.996 0 001.852 11.847c24.099-3.771 40.573-26.353 36.813-50.449-3.77-24.097-26.349-40.575-50.449-36.811a5.997 5.997 0 00-4.998 6.849 6 6 0 004.486 4.896 37.263 37.263 0 01-2.818 4.507c-5.578 7.646-14.062 13.156-24.151 14.733l.37 2.369c13.176-2.059 23.796-10.429 29.262-21.552 8.69-1.275 17.035 1.037 23.63 5.84 6.661 4.872 11.442 12.225 12.818 21.02 1.372 8.794-.937 17.257-5.795 23.929zM4.37 785.687L4 783.318c21.48-3.354 41.609 11.336 44.965 32.813.586 3.751.621 7.459.167 11.043a46.67 46.67 0 00-2.437.128 36.894 36.894 0 00-.1-10.801c-1.576-10.086-7.086-18.571-14.73-24.151-7.644-5.578-17.405-8.237-27.495-6.663z" fill="#1E1E1F"/></g><g opacity=".03" fill="#fff"><path d="M131.596 571.091l9.091-16.906a2.295 2.295 0 014.043 2.173l-9.091 16.907a2.295 2.295 0 11-4.043-2.174z"/><path d="M145.592 570.322l-16.907-9.09a2.295 2.295 0 112.173-4.042l16.908 9.09a2.294 2.294 0 01-2.174 4.042z"/></g><g filter="url(#filter1_f)"><path fill-rule="evenodd" clip-rule="evenodd" d="M1866.69 75.94L1896 91.697c5.04 2.708 11.32.821 14.03-4.219 2.71-5.036.82-11.317-4.22-14.025l-29.31-15.758 15.61-29.024c2.71-5.036.82-11.317-4.22-14.03-5.04-2.707-11.32-.817-14.03 4.22l-15.61 29.023-28.75-15.46c-5.04-2.708-11.32-.821-14.03 4.219-2.71 5.036-.82 11.317 4.22 14.025l28.75 15.461-15.61 29.04c-2.71 5.036-.82 11.32 4.22 14.029 5.04 2.709 11.32.818 14.03-4.219l15.61-29.039z" fill="#1E1E1F"/></g><g filter="url(#filter2_f)"><path fill-rule="evenodd" clip-rule="evenodd" d="M1406.62 926.873l.12.427 10.34 38.723-11.74 11.722-40.42 40.385-14.74-55.2-14.76-55.202 55.16 14.835 16.04 4.31zm-.84-3.168l-14.46-3.884-59.91-16.116 16.03 59.958 16.01 59.957 43.9-43.863 10.58-10.564 4.19 15.681a7.097 7.097 0 005.02 5.026 7.096 7.096 0 006.86-1.835l42.16-42.12 42.16-42.097a7.111 7.111 0 001.85-6.861 7.114 7.114 0 00-5.02-5.025l-57.56-15.461-57.54-15.474a7.11 7.11 0 00-8.71 8.693l14.44 53.985zm26.89 45.613l-12.21-45.686-12.21-45.69 45.65 12.278 45.68 12.267-33.46 33.41-33.45 33.421zm18.59-33.4l-21.68 21.64-.84-3.171 17.03-17.003-23.24-6.239-.85-3.17 29.58 7.943z" fill="#1E1E1F"/></g><g opacity=".03" fill="#fff"><path d="M1302.56 364.262a19.848 19.848 0 00-8.87-12.407c-4.34-2.7-9.67-3.746-15.04-2.503-5.37 1.246-9.69 4.53-12.4 8.864a19.817 19.817 0 00-2.51 15.041 3.712 3.712 0 11-7.23 1.676c-3.41-14.716 5.75-29.404 20.47-32.817 14.71-3.406 29.4 5.754 32.81 20.47a3.707 3.707 0 01-2.78 4.455 3.71 3.71 0 01-4.45-2.779z"/><path d="M1230.83 401.185l1.45-.335c-1.43-6.161-.22-12.31 2.88-17.282a22.798 22.798 0 0114.25-10.186 22.91 22.91 0 016.67-.547c-.08-.501-.14-1.002-.19-1.5-2.23-.119-4.52.07-6.81.6-13.12 3.04-21.29 16.134-18.25 29.25zm46.05-10.671l1.45-.335c-1.87-8.055-7.53-14.243-14.65-17.115l.03.137c.12.51.12 1.019.04 1.503 1.02.446 2 .966 2.95 1.555 4.97 3.102 8.76 8.094 10.18 14.255z"/></g><defs><filter id="filter0_f" x="-6" y="761.569" width="116.532" height="168.367" filterUnits="userSpaceOnUse" color-interpolation-filters="sRGB"><feFlood flood-opacity="0" result="BackgroundImageFix"/><feBlend in="SourceGraphic" in2="BackgroundImageFix" result="shape"/><feGaussianBlur stdDeviation="5" result="effect1_foregroundBlur"/></filter><filter id="filter1_f" x="1800.41" y="0" width="124.263" height="124.262" filterUnits="userSpaceOnUse" color-interpolation-filters="sRGB"><feFlood flood-opacity="0" result="BackgroundImageFix"/><feBlend in="SourceGraphic" in2="BackgroundImageFix" result="shape"/><feGaussianBlur stdDeviation="4.5" result="effect1_foregroundBlur"/></filter><filter id="filter2_f" x="1321.41" y="850.783" width="209" height="182.832" filterUnits="userSpaceOnUse" color-interpolation-filters="sRGB"><feFlood flood-opacity="0" result="BackgroundImageFix"/><feBlend in="SourceGraphic" in2="BackgroundImageFix" result="shape"/><feGaussianBlur stdDeviation="5" result="effect1_foregroundBlur"/></filter></defs></svg>