<svg width="12" height="12" viewBox="0 0 12 12" fill="none" xmlns="http://www.w3.org/2000/svg"><g clip-path="url(#clip0)"><path d="M4.004 9.314c-.575 0-1.045.47-1.045 1.046 0 .575.47 1.046 1.045 1.046.576 0 1.046-.47 1.046-1.046 0-.575-.47-1.046-1.046-1.046zM.867.948v1.046h1.046l1.882 3.974-.732 1.255a1.858 1.858 0 00-.104.523c0 .575.47 1.045 1.045 1.045h6.275V7.746H4.214a.112.112 0 01-.105-.105V7.59l.47-.89h3.87c.418 0 .732-.208.889-.522l1.882-3.399c.105-.104.105-.157.105-.261 0-.314-.21-.523-.523-.523H3.063L2.593.948H.867zm8.366 8.366c-.575 0-1.045.47-1.045 1.046 0 .575.47 1.046 1.045 1.046s1.046-.47 1.046-1.046c0-.575-.47-1.046-1.046-1.046z" fill="#FF834E"/></g><defs><clipPath id="clip0"><path fill="#fff" d="M.867.948h10.458v10.458H.867z"/></clipPath></defs></svg>