<svg width="15" height="15" viewBox="0 0 15 15" fill="none" xmlns="http://www.w3.org/2000/svg"><path d="M.744 7.5A6.761 6.761 0 007.5 14.256 6.761 6.761 0 0014.256 7.5C14.256 3.779 11.22.744 7.5.744S.744 3.78.744 7.5zm12.558 0A5.811 5.811 0 017.5 13.302 5.811 5.811 0 011.698 7.5 5.811 5.811 0 017.5 1.698 5.811 5.811 0 0113.302 7.5z" fill="#000"/><path d="M4.128 5.942a.466.466 0 00-.14.337c0 .116.047.244.14.337l3.07 3.07c.093.093.209.14.337.14a.466.466 0 00.337-.14l3.07-3.07a.477.477 0 00-.675-.674L7.535 8.674 4.802 5.942a.477.477 0 00-.674 0z" fill="#000"/></svg>