<svg width="195" height="196" viewBox="0 0 195 196" fill="none" xmlns="http://www.w3.org/2000/svg"><mask id="a" maskUnits="userSpaceOnUse" x="0" y="0" width="195" height="196"><g clip-path="url(#clip0)" fill="#fff" opacity=".03"><path d="M127.383 7.926L33 28.819c-6.646 1.471-12.512 4.957-16.965 10.08a2.397 2.397 0 003.617 3.144c3.774-4.342 8.748-7.297 14.384-8.544l94.383-20.894c14.391-3.186 28.69 5.93 31.876 20.321l13.704 61.904c3.185 14.391-5.931 28.691-20.322 31.877l-39.892 8.831a3.601 3.601 0 00-2.31 1.67l-24.498 41.158c-.529.888-1.377.857-1.717.802-.34-.054-1.155-.29-1.378-1.3l-6.76-30.536a3.596 3.596 0 00-4.282-2.73l-13.546 2.999c-14.39 3.185-28.69-5.931-31.876-20.322L13.714 65.375a26.58 26.58 0 011.294-15.748 2.397 2.397 0 00-4.445-1.792A31.357 31.357 0 009.035 66.41l13.703 61.904c3.757 16.971 20.621 27.721 37.593 23.965l12.372-2.739 6.5 29.363a6.444 6.444 0 005.296 4.996 6.45 6.45 0 006.597-3.083l24.232-40.712 39.385-8.719c16.972-3.756 27.722-20.62 23.966-37.591L164.975 31.89c-3.757-16.972-20.62-27.722-37.592-23.965z"/><path d="M122.121 48.525c-9.918-6.323-23.132-3.398-29.456 6.52l-3.175 4.982c-.009.013-.035.054-.097.068a.145.145 0 01-.116-.021l-4.902-3.125c-9.919-6.323-23.133-3.397-29.456 6.521-6.323 9.919-3.398 23.133 6.52 29.456l36.841 23.486a4.909 4.909 0 003.728.659 4.921 4.921 0 003.103-2.171l12.906-20.248a2.396 2.396 0 00-4.042-2.576l-12.906 20.248a.146.146 0 01-.096.067.147.147 0 01-.117-.02l-36.84-23.486c-7.69-4.903-9.959-15.148-5.056-22.84 4.902-7.69 15.148-9.957 22.838-5.055l4.902 3.125a4.914 4.914 0 003.728.659 4.915 4.915 0 003.103-2.171l3.175-4.981c4.904-7.69 15.149-9.958 22.839-5.056 7.69 4.903 9.958 15.148 5.056 22.839l-5.439 8.533a2.395 2.395 0 104.041 2.576l5.439-8.533c6.323-9.919 3.398-23.133-6.521-29.456z"/></g></mask><g mask="url(#a)"><rect x="-84" y="-7.949" width="277.776" height="194.958" rx="9.528" fill="#C4C4C4"/></g><defs><clipPath id="clip0"><path transform="rotate(-12.482 .613 35.988)" fill="#fff" d="M.613 35.988h163.008v163.008H.613z"/></clipPath></defs></svg>