<svg width="1400" height="509" viewBox="0 0 1400 509" fill="none" xmlns="http://www.w3.org/2000/svg" xmlns:xlink="http://www.w3.org/1999/xlink"><g opacity=".1"><path d="M187 133h1187c11.05 0 20 8.954 20 20v314c0 11.046-8.95 20-20 20H187" stroke="#fff" stroke-width="11" stroke-linecap="square" stroke-linejoin="round" stroke-dasharray="4 30"/><circle cx="161.5" cy="486.5" r="17.5" stroke="#fff" stroke-width="10"/><mask id="a" maskUnits="userSpaceOnUse" x="0" y="0" width="171" height="171"><path transform="rotate(-158.188 121.837 170.598)" fill="url(#pattern0)" d="M121.837 170.598h131.232V301.83H121.837z"/></mask><g mask="url(#a)"><path fill="#BEBBBE" d="M122.353 170.726L.039 121.774 49.213-1.096l122.314 48.952z"/></g><path d="M47.987 91.014a11.215 11.215 0 01-2.563-1.722c-.748-.69-1.288-1.372-1.622-2.043l1.958-1.622c.328.626.789 1.226 1.383 1.8a7.638 7.638 0 001.948 1.377c.785.385 1.42.555 1.907.512.493-.055.834-.276 1.023-.662a.954.954 0 00.002-.867c-.121-.3-.33-.592-.627-.879a17.82 17.82 0 00-1.215-1.06c-.804-.663-1.443-1.244-1.917-1.745a4.117 4.117 0 01-.992-1.776c-.175-.679-.067-1.416.323-2.212a3.657 3.657 0 011.483-1.6c.654-.386 1.437-.559 2.35-.52.923.043 1.93.332 3.023.868.762.373 1.462.83 2.1 1.368.64.539 1.148 1.113 1.527 1.722l-1.882 1.68c-.796-1.167-1.746-2.02-2.85-2.56-.773-.38-1.409-.536-1.907-.47-.486.072-.83.312-1.03.722-.201.41-.141.82.18 1.23.337.406.896.92 1.677 1.542.804.662 1.443 1.244 1.917 1.744s.801 1.084.982 1.751c.193.673.094 1.407-.297 2.203a3.638 3.638 0 01-1.5 1.593c-.648.373-1.434.538-2.358.494-.924-.044-1.931-.333-3.023-.868zM62.1 85.659l-3.822-1.873 1.104-2.252 10.407 5.1-1.104 2.253-3.821-1.873-4.75 9.69-2.764-1.355 4.75-9.69zm11.842 14.649l-5.545-2.718-2.312 2.041-2.832-1.388L74.43 88.91l2.73 1.338-.514 14.56-2.9-1.422.196-3.078zm.158-2.525l.348-5.5-4.135 3.644 3.787 1.856zm11.394 11.362l-.673-4.456-.136-.067-2.406-1.179-1.63 3.327-2.764-1.355 5.853-11.943 5.17 2.534c1.058.519 1.887 1.144 2.487 1.876.612.737.97 1.533 1.073 2.387.103.855-.063 1.726-.498 2.613s-1.027 1.549-1.777 1.985c-.733.431-1.576.625-2.528.581l.797 5.152-2.968-1.455zm3.678-7.634c.33-.671.364-1.289.105-1.854-.254-.575-.796-1.067-1.627-1.474l-2.252-1.104-2.04 4.163 2.252 1.104c.83.407 1.55.534 2.161.382.61-.152 1.078-.558 1.401-1.217zm8.315 1.494l-3.821-1.873 1.104-2.252 10.407 5.101-1.104 2.252-3.822-1.873-4.75 9.69-2.764-1.355 4.75-9.69z" fill="#171718"/></g><defs><pattern id="pattern0" patternContentUnits="objectBoundingBox" width="1" height="1"><use xlink:href="#image0" transform="scale(.00195)"/></pattern></defs></svg>