<svg width="1920" height="1034" viewBox="0 0 1920 1034" fill="none" xmlns="http://www.w3.org/2000/svg">
<path d="M333.624 712.482L336.127 708.498C337.317 709.245 338.602 709.587 339.895 709.589C341.073 709.589 342.248 709.294 343.283 708.733C344.322 708.17 345.22 707.359 345.903 706.275V706.271C346.65 705.081 346.995 703.796 346.997 702.503C346.997 701.326 346.701 700.154 346.14 699.117C345.579 698.08 344.766 697.182 343.684 696.499C342.498 695.757 341.216 695.413 339.921 695.411C338.743 695.411 337.567 695.706 336.53 696.267C335.491 696.83 334.591 697.643 333.908 698.725L333.906 698.729C333.163 699.913 332.82 701.197 332.818 702.49C332.816 703.668 333.114 704.842 333.675 705.881C334.237 706.92 335.05 707.82 336.131 708.501L336.127 708.498L333.624 712.482L331.117 716.465C328.638 714.906 326.695 712.768 325.393 710.351C324.087 707.931 323.407 705.23 323.407 702.49C323.404 699.489 324.232 696.429 325.944 693.715L325.943 693.717C327.501 691.236 329.639 689.29 332.058 687.988C334.478 686.681 337.181 686 339.921 686C342.92 685.998 345.98 686.824 348.692 688.533C351.173 690.09 353.117 692.226 354.42 694.645C355.726 697.063 356.407 699.762 356.407 702.503C356.409 705.505 355.581 708.567 353.87 711.283V711.281C352.314 713.762 350.175 715.708 347.759 717.012C345.338 718.319 342.637 719 339.895 719C336.897 719.002 333.836 718.176 331.12 716.467L331.117 716.465L333.624 712.482Z" fill="#1E1E1F"/>
<path fill-rule="evenodd" clip-rule="evenodd" d="M194.322 237.898L163.744 216.995L155.652 228.832L163.478 234.183L163.086 234.756L150.698 252.878L149.551 252.093L161.547 234.546L154.867 229.98L142.84 247.574L173.418 268.478L194.322 237.898ZM177.193 275.267L202.019 238.952C202.536 238.196 202.735 237.247 202.566 236.349C202.397 235.449 201.867 234.639 201.112 234.123L164.797 209.298C164.043 208.781 163.095 208.582 162.196 208.751C161.297 208.919 160.485 209.449 159.969 210.205L135.142 246.521C134.626 247.276 134.428 248.224 134.597 249.124C134.766 250.022 135.295 250.833 136.05 251.35L145.598 257.876L137.505 269.714L102.339 245.674L126.381 210.506L149.115 226.047L149.899 224.9L126.018 208.574L100.407 246.037L137.868 271.646L146.745 258.661L172.364 276.175C173.119 276.691 174.068 276.89 174.967 276.722C175.866 276.552 176.677 276.022 177.193 275.267Z" fill="#1E1E1F"/>
<g opacity="0.03">
<path d="M1679.09 644.274C1679.52 644.138 1679.76 643.981 1679.99 643.768C1680.18 643.579 1680.36 643.326 1680.54 642.963C1680.86 642.335 1681.12 641.382 1681.36 640.258C1681.73 638.57 1682.03 636.516 1682.99 634.487C1683.47 633.476 1684.15 632.469 1685.09 631.614C1686.03 630.757 1687.23 630.079 1688.63 629.66C1689.85 629.295 1691.13 629.984 1691.49 631.198C1691.85 632.412 1691.17 633.691 1689.95 634.056C1689.24 634.273 1688.74 634.549 1688.34 634.868C1688 635.147 1687.72 635.466 1687.47 635.856C1687.03 636.533 1686.7 637.446 1686.43 638.52C1686.02 640.132 1685.79 642.042 1685.1 643.948C1684.76 644.899 1684.27 645.873 1683.5 646.737C1682.73 647.601 1681.65 648.303 1680.41 648.67C1679.19 649.034 1677.91 648.345 1677.55 647.132C1677.18 645.917 1677.87 644.638 1679.09 644.274Z" fill="white"/>
<path d="M1653.57 651.936C1654 651.8 1654.24 651.643 1654.47 651.43C1654.66 651.241 1654.84 650.988 1655.02 650.625C1655.34 649.997 1655.6 649.045 1655.84 647.921C1656.21 646.233 1656.51 644.18 1657.47 642.15C1657.95 641.14 1658.63 640.133 1659.57 639.278C1660.51 638.421 1661.71 637.743 1663.11 637.324C1664.33 636.96 1665.6 637.648 1665.97 638.862C1666.33 640.076 1665.65 641.356 1664.43 641.72C1663.72 641.937 1663.22 642.213 1662.82 642.531C1662.48 642.811 1662.2 643.131 1661.95 643.52C1661.51 644.196 1661.18 645.109 1660.91 646.183C1660.5 647.795 1660.27 649.705 1659.58 651.611C1659.24 652.561 1658.75 653.535 1657.98 654.399C1657.21 655.263 1656.13 655.965 1654.89 656.331C1653.67 656.696 1652.39 656.007 1652.03 654.794C1651.67 653.579 1652.35 652.3 1653.57 651.936Z" fill="white"/>
<path d="M1680.46 648.652C1679.38 648.981 1678.26 649.034 1677.26 648.839C1676.37 648.673 1675.58 648.336 1674.89 647.93C1673.67 647.216 1672.71 646.307 1671.81 645.431C1670.48 644.11 1669.27 642.85 1668.13 642.175C1667.55 641.832 1667.02 641.624 1666.45 641.536C1665.89 641.451 1665.27 641.473 1664.44 641.717C1663.23 642.082 1661.95 641.393 1661.58 640.179C1661.22 638.965 1661.91 637.686 1663.12 637.321C1664.34 636.952 1665.54 636.831 1666.66 636.938C1667.64 637.03 1668.55 637.293 1669.37 637.656C1670.8 638.295 1671.94 639.21 1672.94 640.116C1674.42 641.482 1675.63 642.861 1676.67 643.611C1677.18 643.991 1677.61 644.207 1677.97 644.298C1678.33 644.386 1678.64 644.399 1679.14 644.257C1680.35 643.892 1681.63 644.58 1682 645.794C1682.36 647.008 1681.67 648.288 1680.46 648.652Z" fill="white"/>
<path d="M1654.87 656.335C1653.79 656.664 1652.68 656.716 1651.67 656.521C1650.79 656.355 1650 656.018 1649.31 655.612C1648.09 654.897 1647.13 653.989 1646.23 653.114C1644.9 651.791 1643.69 650.533 1642.54 649.858C1641.97 649.515 1641.44 649.306 1640.87 649.218C1640.31 649.133 1639.69 649.155 1638.86 649.399L1638.86 649.399L1638.2 647.207L1639.2 649.267C1639.05 649.341 1638.92 649.381 1638.86 649.399L1638.2 647.207L1639.2 649.267C1638.06 649.818 1636.69 649.341 1636.13 648.201C1635.58 647.059 1636.06 645.686 1637.2 645.135C1637.36 645.061 1637.48 645.022 1637.54 645.003L1637.54 645.003C1638.76 644.634 1639.96 644.513 1641.08 644.62C1642.06 644.712 1642.97 644.976 1643.79 645.338C1645.22 645.977 1646.36 646.891 1647.36 647.797C1648.83 649.164 1650.05 650.543 1651.09 651.293C1651.6 651.673 1652.03 651.889 1652.39 651.981C1652.75 652.067 1653.05 652.082 1653.56 651.939C1654.77 651.574 1656.05 652.264 1656.41 653.477C1656.78 654.691 1656.09 655.971 1654.87 656.335Z" fill="white"/>
<path d="M1663.35 664.641C1664.58 664.272 1665.45 663.543 1666.05 662.634C1666.66 661.721 1667.01 660.64 1667.29 659.504C1667.84 657.231 1668.12 654.715 1669.23 652.834C1669.97 651.579 1671.04 650.589 1672.88 650.032L1672.61 649.153C1672.61 649.154 1672.61 649.155 1672.6 649.156C1671.08 649.614 1669.96 650.392 1669.15 651.354C1668.34 652.318 1667.84 653.451 1667.48 654.623C1666.76 656.966 1666.56 659.495 1665.75 661.292C1665.2 662.491 1664.45 663.345 1663.07 663.766L1663.33 664.646C1663.34 664.644 1663.34 664.643 1663.35 664.641Z" fill="white"/>
<path d="M1637.83 672.303C1639.06 671.934 1639.93 671.205 1640.53 670.296C1641.14 669.383 1641.49 668.302 1641.77 667.166C1642.32 664.894 1642.6 662.379 1643.71 660.498C1644.45 659.244 1645.52 658.253 1647.36 657.696L1647.09 656.817C1647.09 656.818 1647.09 656.819 1647.08 656.82C1645.56 657.278 1644.44 658.056 1643.63 659.018C1642.82 659.981 1642.32 661.115 1641.96 662.287C1641.24 664.629 1641.04 667.159 1640.23 668.955C1639.68 670.153 1638.93 671.007 1637.55 671.429L1637.81 672.308C1637.82 672.306 1637.82 672.305 1637.83 672.303Z" fill="white"/>
<path d="M1663.36 664.635C1663.37 664.633 1663.38 664.631 1663.38 664.629L1663.12 663.749C1662.08 664.058 1661.21 663.96 1660.36 663.604C1659.51 663.247 1658.69 662.611 1657.87 661.846C1656.21 660.321 1654.56 658.292 1652.36 657.2C1650.89 656.473 1649.15 656.198 1647.12 656.808C1647.12 656.81 1647.11 656.812 1647.1 656.814L1647.37 657.693C1648.74 657.281 1649.9 657.319 1650.94 657.625C1651.98 657.934 1652.92 658.527 1653.82 659.261C1655.61 660.725 1657.16 662.744 1659.03 663.935C1660.27 664.728 1661.72 665.129 1663.36 664.635Z" fill="white"/>
<path d="M1637.8 672.312L1637.67 671.872L1637.54 671.432C1636.5 671.741 1635.63 671.641 1634.78 671.286C1633.93 670.93 1633.11 670.293 1632.29 669.527C1630.63 668.003 1628.98 665.975 1626.78 664.882C1625.31 664.155 1623.57 663.88 1621.55 664.489L1621.52 664.496L1621.45 664.523L1621.85 665.349L1621.66 664.942L1621.79 665.375L1621.79 665.375C1623.17 664.963 1624.32 665.001 1625.36 665.308C1626.4 665.616 1627.34 666.209 1628.23 666.943C1630.03 668.406 1631.58 670.426 1633.45 671.617C1634.69 672.409 1636.13 672.812 1637.78 672.318C1637.79 672.316 1637.79 672.313 1637.8 672.312Z" fill="white"/>
</g>
<g opacity="0.03">
<path d="M745.609 718.972C745.091 718.509 744.699 718.319 744.243 718.192C743.843 718.085 743.367 718.043 742.752 718.092C741.681 718.17 740.228 718.574 738.571 719.146C736.07 719.981 733.143 721.196 729.736 721.533C728.034 721.693 726.188 721.601 724.33 721.036C722.471 720.478 720.643 719.44 718.994 717.93C717.565 716.626 717.464 714.412 718.768 712.982C720.072 711.553 722.286 711.452 723.715 712.756C724.559 713.522 725.309 713.954 726.038 714.225C726.676 714.459 727.311 714.573 728.018 714.596C729.247 714.636 730.703 714.356 732.319 713.865C734.755 713.146 737.436 711.949 740.466 711.348C741.985 711.06 743.64 710.931 745.378 711.269C747.112 711.598 748.872 712.452 750.33 713.798C751.758 715.1 751.859 717.317 750.556 718.745C749.253 720.174 747.037 720.275 745.609 718.972Z" fill="white"/>
<path d="M775.644 746.378C775.127 745.916 774.733 745.725 774.277 745.598C773.879 745.492 773.402 745.449 772.786 745.498C771.716 745.576 770.265 745.98 768.607 746.551C766.107 747.387 763.181 748.601 759.773 748.938C758.072 749.098 756.227 749.007 754.367 748.443C752.509 747.883 750.682 746.846 749.033 745.336C747.604 744.032 747.503 741.817 748.806 740.388C750.11 738.959 752.325 738.858 753.754 740.162C754.598 740.928 755.348 741.36 756.075 741.631C756.713 741.864 757.35 741.979 758.056 742.001C759.284 742.042 760.739 741.762 762.356 741.27C764.792 740.552 767.472 739.354 770.502 738.755C772.02 738.466 773.676 738.338 775.414 738.676C777.147 739.004 778.907 739.858 780.364 741.204C781.794 742.507 781.894 744.723 780.591 746.151C779.287 747.58 777.073 747.682 775.644 746.378Z" fill="white"/>
<path d="M750.268 713.745C751.546 714.904 752.487 716.317 753.021 717.789C753.496 719.075 753.674 720.374 753.687 721.601C753.705 723.755 753.269 725.725 752.826 727.587C752.139 730.366 751.439 732.937 751.454 734.968C751.454 735.987 751.599 736.85 751.927 737.659C752.26 738.466 752.776 739.264 753.742 740.151C755.171 741.454 755.272 743.669 753.968 745.098C752.665 746.527 750.45 746.629 749.021 745.325C747.58 744.013 746.482 742.54 745.745 740.989C745.096 739.634 744.727 738.235 744.563 736.883C744.277 734.508 744.58 732.296 744.986 730.283C745.616 727.276 746.467 724.601 746.638 722.66C746.734 721.69 746.676 720.953 746.516 720.414C746.346 719.87 746.127 719.464 745.547 718.919C744.118 717.615 744.016 715.401 745.32 713.972C746.623 712.544 748.839 712.441 750.268 713.745Z" fill="white"/>
<path d="M780.38 741.217C781.659 742.376 782.598 743.791 783.131 745.262C783.605 746.547 783.783 747.846 783.797 749.074C783.814 751.226 783.378 753.197 782.936 755.057C782.248 757.838 781.549 760.408 781.564 762.439C781.564 763.457 781.708 764.319 782.035 765.127C782.369 765.936 782.884 766.732 783.849 767.618L783.85 767.619L781.496 770.199L783.412 767.28C783.629 767.423 783.777 767.553 783.85 767.619L781.496 770.199L783.412 767.28C785.028 768.342 785.479 770.512 784.418 772.13C783.356 773.747 781.184 774.196 779.568 773.135C779.351 772.992 779.203 772.86 779.129 772.793L779.128 772.792C777.688 771.482 776.59 770.008 775.853 768.458C775.204 767.102 774.836 765.704 774.672 764.352C774.387 761.98 774.689 759.768 775.095 757.755C775.725 754.747 776.576 752.073 776.748 750.13C776.843 749.161 776.786 748.424 776.626 747.884C776.455 747.342 776.237 746.934 775.657 746.39C774.228 745.086 774.128 742.871 775.431 741.443C776.735 740.014 778.951 739.914 780.38 741.217Z" fill="white"/>
<path d="M784.614 723.616C783.165 722.293 781.524 721.718 779.863 721.643C778.193 721.565 776.501 721.952 774.795 722.477C771.388 723.539 767.874 725.143 764.541 725.164C762.317 725.176 760.183 724.554 758.016 722.589L757.072 723.624C757.075 723.626 757.079 723.63 757.084 723.634C758.879 725.272 760.773 726.124 762.665 726.426C764.562 726.731 766.438 726.499 768.256 726.055C771.887 725.158 775.355 723.437 778.348 723.1C780.349 722.879 782.054 723.191 783.687 724.666L784.631 723.631C784.626 723.626 784.62 723.62 784.614 723.616Z" fill="white"/>
<path d="M814.649 751.022C813.201 749.7 811.559 749.124 809.899 749.05C808.228 748.971 806.537 749.359 804.83 749.883C801.424 750.944 797.911 752.547 794.579 752.569C792.355 752.581 790.221 751.959 788.055 749.995L787.111 751.029C787.115 751.033 787.119 751.037 787.124 751.041C788.918 752.678 790.812 753.53 792.703 753.831C794.599 754.137 796.476 753.904 798.294 753.46C801.923 752.563 805.392 750.843 808.384 750.505C810.384 750.285 812.088 750.596 813.722 752.071L814.666 751.037C814.661 751.032 814.655 751.026 814.649 751.022Z" fill="white"/>
<path d="M784.595 723.601C784.586 723.594 784.577 723.585 784.569 723.578L783.625 724.613C784.846 725.735 785.397 726.948 785.597 728.339C785.794 729.728 785.603 731.298 785.247 732.977C784.548 736.341 783.186 740.091 783.486 743.837C783.684 746.327 784.684 748.816 787.074 750.996C787.082 751.003 787.09 751.011 787.099 751.018L788.043 749.983C786.423 748.502 785.569 746.964 785.153 745.357C784.74 743.75 784.779 742.055 785.039 740.311C785.552 736.818 786.979 733.202 787.073 729.82C787.141 727.58 786.531 725.368 784.595 723.601Z" fill="white"/>
<path d="M814.681 751.051L814.208 751.567L813.736 752.084C814.956 753.205 815.506 754.42 815.706 755.811C815.904 757.199 815.712 758.77 815.356 760.449C814.657 763.811 813.296 767.562 813.595 771.308C813.793 773.797 814.793 776.285 817.181 778.464L817.207 778.487L817.296 778.557L818.065 777.385L817.686 777.963L818.151 777.452L818.15 777.451C816.531 775.971 815.677 774.433 815.262 772.827C814.848 771.221 814.888 769.527 815.149 767.781C815.661 764.289 817.088 760.674 817.182 757.292C817.25 755.052 816.641 752.839 814.706 751.073C814.698 751.066 814.688 751.057 814.681 751.051Z" fill="white"/>
</g>
<path fill-rule="evenodd" clip-rule="evenodd" d="M1262.96 87.0196L1306.96 61.6345C1308.66 60.6572 1309.24 58.4912 1308.26 56.7982C1307.28 55.104 1305.12 54.5231 1303.42 55.5004L1259.42 80.8854C1257.73 81.8628 1257.14 84.0275 1258.12 85.7218C1259.1 87.4148 1261.26 87.9969 1262.96 87.0196ZM1286.27 90.4437L1242.26 115.829L1242.97 117.056L1286.98 91.6705L1286.27 90.4437Z" fill="#1E1E1F"/>
<g filter="url(#filter0_f)">
<path fill-rule="evenodd" clip-rule="evenodd" d="M76.0689 890.337C71.1994 896.999 63.8443 901.782 55.0492 903.159C51.7794 903.67 49.5399 906.736 50.0512 910.008C50.5621 913.278 53.6306 915.517 56.9005 915.006C80.9996 911.235 97.4744 888.653 93.714 864.557C89.9438 840.46 67.3654 823.982 43.2652 827.746C39.9953 828.257 37.7562 831.325 38.2671 834.595C38.6512 837.053 40.4799 838.928 42.7531 839.491C41.9222 841.058 40.9804 842.565 39.9348 843.998C34.3574 851.644 25.8732 857.154 15.784 858.731L16.1543 861.1C29.3299 859.041 39.9501 850.671 45.4164 839.548C54.1068 838.273 62.4513 840.585 69.0452 845.388C75.7074 850.26 80.4876 857.613 81.8644 866.408C83.236 875.202 80.9272 883.665 76.0689 890.337ZM4.37021 785.687L3.99996 783.318C25.4796 779.964 45.6087 794.654 48.9647 816.131C49.5508 819.882 49.5865 823.59 49.1318 827.174C48.3245 827.195 47.5107 827.238 46.6954 827.302C47.1828 823.803 47.1691 820.174 46.5952 816.501C45.019 806.415 39.5086 797.93 31.8644 792.35C24.2206 786.772 14.4598 784.113 4.37021 785.687Z" fill="#1E1E1F"/>
</g>
<g opacity="0.03">
<path d="M131.596 571.091L140.687 554.185C141.287 553.069 142.678 552.65 143.795 553.25C144.912 553.851 145.33 555.242 144.73 556.358L135.639 573.265C135.039 574.381 133.648 574.8 132.531 574.2C131.415 573.599 130.996 572.207 131.596 571.091Z" fill="white"/>
<path d="M145.592 570.322L128.685 561.232C127.568 560.632 127.15 559.24 127.75 558.124C128.35 557.008 129.742 556.59 130.858 557.19L147.766 566.28C148.882 566.88 149.301 568.271 148.7 569.387C148.1 570.504 146.709 570.922 145.592 570.322Z" fill="white"/>
</g>
<g filter="url(#filter1_f)">
<path fill-rule="evenodd" clip-rule="evenodd" d="M1866.69 75.9401L1896 91.6972C1901.04 94.4054 1907.32 92.5184 1910.03 87.4781C1912.74 82.4418 1910.85 76.161 1905.81 73.4527L1876.5 57.6949L1892.11 28.6711C1894.82 23.6348 1892.93 17.354 1887.89 14.6418C1882.85 11.9335 1876.57 13.8244 1873.86 18.8607L1858.25 47.884L1829.5 32.4241C1824.46 29.7158 1818.18 31.6028 1815.47 36.643C1812.76 41.6793 1814.65 47.9601 1819.69 50.6684L1848.44 66.1291L1832.83 95.1691C1830.12 100.205 1832.01 106.489 1837.05 109.198C1842.09 111.907 1848.37 110.016 1851.08 104.979L1866.69 75.9401Z" fill="#1E1E1F"/>
</g>
<g filter="url(#filter2_f)">
<path fill-rule="evenodd" clip-rule="evenodd" d="M1406.62 926.873L1406.74 927.3L1417.08 966.023L1405.34 977.745L1364.92 1018.13L1350.18 962.93L1335.42 907.728L1390.58 922.563L1406.62 926.873ZM1405.78 923.705L1391.32 919.821L1331.41 903.705L1347.44 963.663L1363.45 1023.62L1407.35 979.757L1417.93 969.193L1422.12 984.874C1422.77 987.326 1424.69 989.241 1427.14 989.9C1429.59 990.559 1432.21 989.858 1434 988.065L1476.16 945.945L1518.32 903.848C1520.12 902.053 1520.82 899.439 1520.17 896.987C1519.51 894.536 1517.6 892.621 1515.15 891.962L1457.59 876.501L1400.05 861.027C1397.6 860.368 1394.98 861.066 1393.19 862.859C1391.39 864.652 1390.69 867.268 1391.34 869.72L1405.78 923.705ZM1432.67 969.318L1420.46 923.632L1408.25 877.942L1453.9 890.22L1499.58 902.487L1466.12 935.897L1432.67 969.318ZM1451.26 935.918L1429.58 957.558L1428.74 954.387L1445.77 937.384L1422.53 931.145L1421.68 927.975L1451.26 935.918Z" fill="#1E1E1F"/>
</g>
<g opacity="0.03">
<path d="M1302.56 364.262C1301.31 358.892 1298.03 354.564 1293.69 351.855C1289.35 349.155 1284.02 348.109 1278.65 349.352C1273.28 350.598 1268.96 353.882 1266.25 358.216C1263.54 362.554 1262.5 367.884 1263.74 373.257C1264.21 375.254 1262.96 377.25 1260.96 377.713C1258.97 378.175 1256.97 376.93 1256.51 374.933C1253.1 360.217 1262.26 345.529 1276.98 342.116C1291.69 338.71 1306.38 347.87 1309.79 362.586C1310.26 364.582 1309.01 366.578 1307.01 367.041C1305.02 367.504 1303.02 366.259 1302.56 364.262Z" fill="white"/>
<path d="M1230.83 401.185L1232.28 400.85C1230.85 394.689 1232.06 388.54 1235.16 383.568C1238.26 378.595 1243.25 374.81 1249.41 373.382C1251.66 372.863 1253.9 372.691 1256.08 372.835C1256 372.334 1255.94 371.833 1255.89 371.335C1253.66 371.216 1251.37 371.405 1249.08 371.935C1235.96 374.975 1227.79 388.069 1230.83 401.185ZM1276.88 390.514L1278.33 390.179C1276.46 382.124 1270.8 375.936 1263.68 373.064C1263.69 373.109 1263.7 373.155 1263.71 373.201C1263.83 373.711 1263.83 374.22 1263.75 374.704C1264.77 375.15 1265.75 375.67 1266.7 376.259C1271.67 379.361 1275.46 384.353 1276.88 390.514Z" fill="white"/>
</g>
<defs>
<filter id="filter0_f" x="-6.00006" y="761.569" width="116.532" height="168.367" filterUnits="userSpaceOnUse" color-interpolation-filters="sRGB">
<feFlood flood-opacity="0" result="BackgroundImageFix"/>
<feBlend mode="normal" in="SourceGraphic" in2="BackgroundImageFix" result="shape"/>
<feGaussianBlur stdDeviation="5" result="effect1_foregroundBlur"/>
</filter>
<filter id="filter1_f" x="1800.41" y="0" width="124.263" height="124.262" filterUnits="userSpaceOnUse" color-interpolation-filters="sRGB">
<feFlood flood-opacity="0" result="BackgroundImageFix"/>
<feBlend mode="normal" in="SourceGraphic" in2="BackgroundImageFix" result="shape"/>
<feGaussianBlur stdDeviation="4.5" result="effect1_foregroundBlur"/>
</filter>
<filter id="filter2_f" x="1321.41" y="850.783" width="209" height="182.832" filterUnits="userSpaceOnUse" color-interpolation-filters="sRGB">
<feFlood flood-opacity="0" result="BackgroundImageFix"/>
<feBlend mode="normal" in="SourceGraphic" in2="BackgroundImageFix" result="shape"/>
<feGaussianBlur stdDeviation="5" result="effect1_foregroundBlur"/>
</filter>
</defs>
</svg>
