<svg width="195" height="196" viewBox="0 0 195 196" fill="none" xmlns="http://www.w3.org/2000/svg">
<mask id="mask0" mask-type="alpha" maskUnits="userSpaceOnUse" x="0" y="0" width="195" height="196">
<g opacity="0.03">
<g clip-path="url(#clip0)">
<path d="M127.383 7.92552L32.9999 28.819C26.3539 30.2902 20.4878 33.7758 16.0347 38.8986C15.1664 39.8975 15.2723 41.4113 16.2712 42.2796C17.2702 43.1479 18.7837 43.0414 19.6522 42.0431C23.4263 37.7009 28.4001 34.7461 34.0358 33.4985L128.419 12.6051C142.81 9.41938 157.109 18.5358 160.295 32.9265L173.999 94.8303C177.184 109.221 168.068 123.521 153.677 126.707L113.785 135.538C112.821 135.751 111.979 136.36 111.475 137.208L86.9774 178.366C86.4484 179.254 85.6002 179.223 85.2605 179.168C84.9204 179.114 84.1054 178.878 83.8819 177.868L77.1223 147.332C76.6942 145.399 74.7732 144.174 72.8397 144.602L59.2944 147.601C44.9033 150.786 30.6034 141.67 27.4177 127.279L13.714 65.375C12.542 60.0806 12.9894 54.6348 15.0082 49.6267C15.5027 48.399 14.9091 47.0031 13.6817 46.5082C12.4546 46.0132 11.0579 46.6077 10.5632 47.8347C8.18146 53.7443 7.65279 60.1677 9.03482 66.4108L22.7384 128.315C26.4952 145.286 43.3591 156.036 60.3305 152.28L72.7026 149.541L79.2027 178.904C79.7806 181.514 81.8595 183.476 84.4992 183.9C85.3313 184.034 86.1584 184.005 86.9436 183.832C88.6499 183.454 90.1593 182.39 91.0959 180.817L115.328 140.105L154.713 131.386C171.685 127.63 182.435 110.766 178.679 93.7946L164.975 31.8906C161.218 14.9194 144.355 4.16857 127.383 7.92552Z" fill="white"/>
<path d="M122.121 48.5249C112.203 42.2016 98.9888 45.1275 92.6651 55.0456L89.4899 60.0267C89.4814 60.04 89.4553 60.081 89.3928 60.0949C89.3306 60.1086 89.2901 60.083 89.2766 60.0739L84.3749 56.9493C74.4563 50.6261 61.2421 53.5516 54.9188 63.47C48.5956 73.3886 51.5209 86.6031 61.4396 92.9263L98.28 116.412C99.3943 117.123 100.718 117.357 102.008 117.071C103.298 116.785 104.4 116.014 105.111 114.9L118.017 94.6517C118.728 93.5355 118.4 92.054 117.284 91.3431C116.168 90.6318 114.686 90.9596 113.975 92.0759L101.069 112.324C101.061 112.337 101.034 112.378 100.973 112.391C100.91 112.405 100.87 112.38 100.856 112.371L64.0157 88.8846C56.3252 83.9816 54.0573 73.7366 58.9599 66.0459C63.8625 58.3552 74.1079 56.0878 81.7983 60.9902L86.6997 64.1149C87.814 64.8253 89.1382 65.0594 90.4282 64.7738C91.7186 64.4882 92.82 63.7174 93.5307 62.603L96.7062 57.6219C101.61 49.9315 111.855 47.6637 119.545 52.5661C127.235 57.4688 129.503 67.7138 124.601 75.4048L119.162 83.9381C118.45 85.0543 118.778 86.5358 119.895 87.2467C121.011 87.958 122.492 87.6303 123.203 86.514L128.642 77.9809C134.965 68.0623 132.04 54.8481 122.121 48.5249Z" fill="white"/>
</g>
</g>
</mask>
<g mask="url(#mask0)">
<rect x="-84.0002" y="-7.9487" width="277.776" height="194.958" rx="9.52843" fill="#C4C4C4"/>
</g>
<defs>
<clipPath id="clip0">
<rect x="0.613281" y="35.9883" width="163.008" height="163.008" transform="rotate(-12.4822 0.613281 35.9883)" fill="white"/>
</clipPath>
</defs>
</svg>
