<?xml version="1.0" encoding="UTF-8"?><!DOCTYPE svg PUBLIC "-//W3C//DTD SVG 1.1//EN" "http://www.w3.org/Graphics/SVG/1.1/DTD/svg11.dtd"><svg xmlns="http://www.w3.org/2000/svg" xmlns:xlink="http://www.w3.org/1999/xlink"><defs><clipPath id="clip0"><path fill="#fff" d="M0 0h81v81H0z"/></clipPath><clipPath id="clip0"><path fill="#fff" d="M0 0h75v75H0z"/></clipPath><clipPath id="clip0"><path fill="#fff" d="M0 0h75v75H0z"/></clipPath><clipPath id="clip0"><path fill="#fff" d="M0 0h75v75H0z"/></clipPath><filter id="filter0_f" x="-6" y="761.569" width="116.532" height="168.367" filterUnits="userSpaceOnUse" color-interpolation-filters="sRGB"><feFlood flood-opacity="0" result="BackgroundImageFix"/><feBlend in="SourceGraphic" in2="BackgroundImageFix" result="shape"/><feGaussianBlur stdDeviation="5" result="effect1_foregroundBlur"/></filter><filter id="filter1_f" x="1800.41" y="0" width="124.263" height="124.262" filterUnits="userSpaceOnUse" color-interpolation-filters="sRGB"><feFlood flood-opacity="0" result="BackgroundImageFix"/><feBlend in="SourceGraphic" in2="BackgroundImageFix" result="shape"/><feGaussianBlur stdDeviation="4.5" result="effect1_foregroundBlur"/></filter><filter id="filter2_f" x="1321.41" y="850.783" width="209" height="182.832" filterUnits="userSpaceOnUse" color-interpolation-filters="sRGB"><feFlood flood-opacity="0" result="BackgroundImageFix"/><feBlend in="SourceGraphic" in2="BackgroundImageFix" result="shape"/><feGaussianBlur stdDeviation="5" result="effect1_foregroundBlur"/></filter><clipPath id="clip0"><path fill="#fff" d="M0 0h75v75H0z"/></clipPath><clipPath id="clip0"><path fill="#fff" d="M0 0h75v75H0z"/></clipPath><clipPath id="clip0"><path fill="#fff" d="M0 0h75v75H0z"/></clipPath><clipPath id="clip0"><path fill="#fff" d="M0 0h81v81H0z"/></clipPath><clipPath id="clip0"><path transform="rotate(-12.482 .613 35.988)" fill="#fff" d="M.613 35.988h163.008v163.008H.613z"/></clipPath><clipPath id="clip0"><path fill="#fff" d="M.794.259h42.878v42.878H.794z"/></clipPath><clipPath id="clip0"><path fill="#fff" d="M.867.948h10.458v10.458H.867z"/></clipPath><pattern id="pattern0" patternContentUnits="objectBoundingBox" width="1" height="1"><use xlink:href="#image0" transform="scale(.00195)"/></pattern></defs><symbol id="analysis" viewBox="0 0 81 81"><g clip-path="url(#clip0)" fill="#1D1D1D"><path d="M40.5 21.08l9.618-8.015H62.71V0H31.355v13.065H40.5v8.014zm-6.532-10.628v-7.84h26.129v7.84H49.172l-6.06 5.05v-5.05h-9.144z"/><path d="M36.58 5.226h2.614v2.613H36.58V5.226zm5.226 0h10.452v2.613H41.806V5.226zm13.064 0h2.614v2.613H54.87V5.226zm11.635 73.161l-1.057-10.576c4.362-.69 7.713-4.467 7.713-9.02V41.805h-5.225V40a4.7 4.7 0 00-2.546-4.188 7.808 7.808 0 002.546-5.765v-2.613c0-4.323-3.516-7.838-7.84-7.838-4.322 0-7.838 3.515-7.838 7.838v2.613c0 3.383 2.157 6.262 5.165 7.36l-7.012 7.011h-7.327c-.146-2.178-1.642-4.076-3.761-4.682l-5.355-1.529v-2.333a7.812 7.812 0 002.613-5.827v-2.613c0-4.323-3.516-7.838-7.84-7.838-4.322 0-7.838 3.515-7.838 7.838v2.613a7.816 7.816 0 002.613 5.827v2.335l-5.355 1.528a5.246 5.246 0 00-3.79 5.025v4.882H9.145v7.839h2.613v20.903H0V81h81v-2.613H66.505zM54.87 57.484v-5.992l9.257-9.257a4.092 4.092 0 001.157-2.506c.011.092.038.178.038.272v16.176c0 2.16-1.76 3.92-3.92 3.92h-10.45v-2.613h3.919zm-3.92 10.451h6.657l1.045 10.452h-7.701V67.935zm9.283 0h2.6l1.045 10.452h-2.6l-1.045-10.452zm7.702-11.758V44.42h2.612v14.37a6.54 6.54 0 01-6.532 6.533H50.952V62.71h10.451a6.54 6.54 0 006.533-6.533zM54.87 30.048v-2.613a5.231 5.231 0 015.226-5.225 5.231 5.231 0 015.226 5.225v2.613a5.231 5.231 0 01-5.226 5.226 5.231 5.231 0 01-5.226-5.226zm-3.378 16.984l8.716-8.716a1.466 1.466 0 012.072 2.072l-9.257 9.257h-13.83a1.307 1.307 0 010-2.613h12.299zM23.516 27.435a5.231 5.231 0 015.226-5.225 5.231 5.231 0 015.226 5.225v2.613a5.231 5.231 0 01-5.226 5.226 5.231 5.231 0 01-5.226-5.226v-2.613zm5.226 10.452c.917 0 1.794-.167 2.613-.457v1.403c-.324.5-1.224 1.667-2.613 1.667s-2.289-1.167-2.613-1.667V37.43a7.8 7.8 0 002.613.457zm-11.758 6.876c0-1.161.78-2.194 1.894-2.513l5.383-1.537c.757.987 2.232 2.4 4.48 2.4 2.25 0 3.724-1.413 4.482-2.401l5.382 1.537c1.001.286 1.7 1.157 1.839 2.169h-1.25a3.924 3.924 0 00-3.92 3.92c0 .46.094.896.24 1.306h-18.53v-4.88zm-5.226 7.495h40.5v2.613h-40.5v-2.613zm2.613 10.452h3.92v-2.613h-3.92v-2.613h33.968v2.613H20.903v2.613H48.34v15.677h-3.112l-2.613-5.226H20.096l-2.613 5.226H14.37V62.71zm27.934 15.677h-21.9l1.306-2.613h19.288l1.306 2.613z"/></g></symbol><symbol id="client" viewBox="0 0 89 89"><path d="M78.522 41.242c-3.029-1.514-8.707-1.531-8.947-1.531a1.304 1.304 0 000 2.607c1.465 0 5.72.226 7.78 1.257a1.304 1.304 0 101.166-2.332z" fill="#EF8B54"/><path d="M85.021 59.804l-5.384-1.538a.547.547 0 01-.395-.524v-1.797a9.797 9.797 0 001.247-1.022 9.591 9.591 0 002.935-6.939v-2.48l.52-1.04a8.316 8.316 0 00.874-3.7v-6.72c0-.72-.584-1.303-1.303-1.303H70.969c-4.562 0-8.274 3.712-8.274 8.274v.077c0 1.063.252 2.127.727 3.077l.667 1.335v2.13c0 3.374 1.663 6.402 4.182 8.224v1.884c0 .29 0 .41-1.076.718l-2.627.75-7.6-2.763a1.302 1.302 0 00-.356-.998l-2.428-2.551v-4.283c.257-.212.51-.43.755-.659a15.301 15.301 0 004.82-11.123v-3.421a15.068 15.068 0 001.395-6.337v-13.94c0-.72-.584-1.303-1.304-1.303H40.335c-6.868 0-12.456 5.587-12.456 12.455v2.788c0 2.194.47 4.324 1.394 6.337v2.944c0 4.873 2.167 9.264 5.576 12.158v4.384l-2.428 2.551c-.262.275-.383.64-.356.999l-8.021 2.916a6.835 6.835 0 00-1.612.845l-1.26-.63c3.75-1.632 4.938-3.928 4.995-4.042a1.307 1.307 0 000-1.166c-.94-1.88-1.054-5.325-1.145-8.093a70.48 70.48 0 00-.115-2.568c-.444-6.253-5.198-10.969-11.058-10.969-5.86 0-10.614 4.716-11.058 10.97a70.53 70.53 0 00-.114 2.567c-.092 2.768-.206 6.213-1.145 8.093a1.3 1.3 0 000 1.166c.057.114 1.242 2.405 4.999 4.039l-3.499 1.75A5.457 5.457 0 000 66.231v9.632a1.304 1.304 0 002.607 0v-9.632c0-1.097.61-2.084 1.591-2.574l4.357-2.179 1.515 1.44a5.47 5.47 0 003.78 1.51 5.468 5.468 0 003.778-1.51l1.515-1.44 1.42.71a6.865 6.865 0 00-1.048 3.64v10.035a1.304 1.304 0 002.608 0V65.83c0-1.79 1.13-3.404 2.812-4.015l8.457-3.075 3.52 5.28a2.687 2.687 0 002.248 1.202c.713 0 1.395-.28 1.905-.79l2.148-2.148v13.58a1.304 1.304 0 002.607 0v-13.58l2.148 2.148a2.686 2.686 0 002.173.777 2.688 2.688 0 001.98-1.188l3.52-5.281 8.457 3.075a4.285 4.285 0 012.812 4.015v10.034a1.304 1.304 0 002.607 0V65.83c0-1.813-.72-3.513-1.928-4.77l.322-.092a7.15 7.15 0 001.213-.438l3.329 3.329v12.005a1.304 1.304 0 002.607 0V63.86l3.306-3.306c.176.09.36.165.555.22l5.384 1.539a2.89 2.89 0 012.088 2.767v10.785a1.304 1.304 0 002.607 0V65.08a5.51 5.51 0 00-3.979-5.275zM8.364 57.501c-2.439-.877-3.662-2.047-4.184-2.686.356-.93.587-1.996.743-3.122a9.722 9.722 0 003.44 4.246V57.5zm7.468 3.529a2.877 2.877 0 01-3.965 0l-1.213-1.153c.205-.383.317-.818.317-1.273v-1.39a9.696 9.696 0 005.756 0v1.39c0 .456.113.89.317 1.274l-1.212 1.152zm-1.982-5.985a7.068 7.068 0 01-7.06-7.06A1.304 1.304 0 005.272 46.7l.012-.335a69.01 69.01 0 01.108-2.47c.167-2.342 1.103-4.5 2.636-6.078a8.058 8.058 0 015.822-2.468c2.207 0 4.274.876 5.821 2.468 1.533 1.577 2.47 3.736 2.636 6.078.052.726.08 1.573.11 2.47l.007.232c-1.418-2.186-3.609-3.796-6.44-4.706-2.614-.84-4.863-.788-4.958-.785-.342.01-.666.152-.903.398l-2.352 2.44a1.304 1.304 0 101.877 1.81l1.957-2.03c1.686.082 7.109.713 9.218 5.357a7.043 7.043 0 01-6.973 5.964zm5.485 2.46v-1.554a9.643 9.643 0 003.442-4.25c.156 1.122.387 2.186.742 3.114-.52.633-1.748 1.814-4.184 2.69zm12.546-21.15v-3.234c0-.197-.045-.39-.13-.567a12.505 12.505 0 01-1.264-5.479v-2.788c0-5.43 4.418-9.848 9.848-9.848h18.211v12.636c0 1.899-.425 3.742-1.264 5.479-.085.177-.13.37-.13.567v3.712c0 3.53-1.419 6.805-3.996 9.221-.322.301-.656.584-1.001.847l-.022.017c-2.415 1.833-5.372 2.724-8.46 2.524-6.613-.429-11.792-6.177-11.792-13.087zm7.34 26.233a.083.083 0 01-.072.026.083.083 0 01-.067-.04l-4.054-6.082 1.305-1.37 6.15 4.203-3.262 3.263zm5.296-5.031l-7.06-4.826v-2.434a14.678 14.678 0 007.073 1.78 15.1 15.1 0 007.047-1.727v2.38l-7.06 4.827zm5.434 5.017a.083.083 0 01-.066.04c-.043.006-.064-.017-.073-.026l-3.262-3.262 6.15-4.205 1.305 1.371-4.054 6.082zm23.806-1.1l-2.959-2.958c.052-.235.08-.491.08-.774v-.55a9.144 9.144 0 002.882.46c.99 0 1.956-.15 2.875-.435v.525c0 .26.033.515.094.76l-2.972 2.972zm4.916-8.422a7.007 7.007 0 01-5.134 1.99c-3.773-.114-6.842-3.437-6.842-7.408v-2.437c0-.203-.047-.402-.138-.583l-.805-1.611a4.295 4.295 0 01-.451-1.91v-.078a5.673 5.673 0 015.666-5.666H82.21v5.414c0 .875-.207 1.752-.598 2.535l-.659 1.316c-.09.18-.137.38-.137.583v2.788a7.004 7.004 0 01-2.144 5.067z" fill="#EF8B54"/><path d="M82.12 66.196c-.72 0-1.303.584-1.303 1.304v8.364a1.304 1.304 0 002.607 0V67.5c0-.72-.583-1.304-1.303-1.304zM6.88 67.92c-.72 0-1.304.583-1.304 1.303v6.64a1.304 1.304 0 002.607 0v-6.64c0-.72-.583-1.304-1.303-1.304zm48.316-40.373c-4.93-4.93-15.247-3.988-19.454-3.354a2.677 2.677 0 00-2.287 2.667v3.003a1.304 1.304 0 002.607 0V26.86c0-.045.03-.083.069-.089 1.68-.253 5.014-.644 8.47-.413 4.065.27 7.01 1.29 8.751 3.033a1.304 1.304 0 101.844-1.844zM29.183 68.984c-.72 0-1.304.584-1.304 1.304v5.576a1.304 1.304 0 002.608 0v-5.576c0-.72-.584-1.304-1.304-1.304zm30.667 0c-.72 0-1.304.584-1.304 1.304v5.576a1.304 1.304 0 002.608 0v-5.576c0-.72-.584-1.304-1.304-1.304z" fill="#EF8B54"/></symbol><symbol id="contract" viewBox="0 0 75 75"><g clip-path="url(#clip0)" fill="#EF8B54"><path d="M74.862 17.785a3.748 3.748 0 00-1.75-2.275 3.75 3.75 0 00-5.124 1.375l-.624 1.087a1.25 1.25 0 00-1.7.45l-3.175 5.412-1.087-.625a1.251 1.251 0 00-1.712.462 1.25 1.25 0 00.462 1.7l1.088.625-10.624 18.409-2.624 7.012-1.25 2.336a3.75 3.75 0 00.2 4.05l-2.812 3.45-.787-1.975a2.499 2.499 0 00-4.462-.35l-.45.762-.425-5a2.5 2.5 0 00-4.861-.586l-3.075 9.223a1.25 1.25 0 00.787 1.575c.122.057.253.09.388.1a1.25 1.25 0 001.187-.85l3.062-9.223.438 5.073a2.5 2.5 0 004.636 1.075l.463-.762.775 1.962a2.499 2.499 0 004.274.637l2.912-3.686c.322.084.654.126.987.125a3.75 3.75 0 003.262-1.85l1.25-2.087 4.762-5.787 10.735-18.634 1.088.625a1.25 1.25 0 01.462 1.712l-4.999 8.661a1.248 1.248 0 00.4 1.762 1.249 1.249 0 001.712-.462l5-8.661a3.747 3.747 0 00-1.376-5.124l-1.087-.625 3.124-5.412a1.25 1.25 0 00-.45-1.7l.626-1.087a3.748 3.748 0 00.374-2.9zm-4.712.35c.166-.29.44-.502.763-.588a1.32 1.32 0 01.95.125c.29.166.5.44.588.763.079.32.034.66-.126.95l-.624 1.087-2.175-1.25.624-1.088zM53.116 53.028l-.625-.363-1.85-1.075 1.775-4.749 3.937 2.275-3.237 3.912zm-3.75 3.611a1.249 1.249 0 01-.374-1.637l.625-1.087 2.174 1.25-.625 1.075a1.25 1.25 0 01-1.8.4zm8.412-9.572l-4.325-2.5 9.999-17.323 4.324 2.5-9.998 17.323zm11.248-19.485l-4.324-2.5 2.5-4.324 4.323 2.5-2.5 4.324zM19.721 56.016l-4.423 4.412-2.65-2.65a1.25 1.25 0 10-1.762 1.775l2.65 2.65a2.499 2.499 0 001.762.724 2.5 2.5 0 001.774-.725l4.412-4.424a1.25 1.25 0 00-1.763-1.762z"/><path d="M5 59.377c0 5.868 4.755 10.624 10.622 10.624s10.623-4.756 10.623-10.624a1.25 1.25 0 00-2.5 0 8.124 8.124 0 11-8.123-8.123 8.053 8.053 0 014.874 1.625 1.25 1.25 0 101.5-2A10.625 10.625 0 005 59.377zM44.992 10.01a1.25 1.25 0 100-2.499H12.498c-.69 0-1.25.56-1.25 1.25v5c0 .69.56 1.249 1.25 1.249h32.494a1.25 1.25 0 100-2.5H13.748v-2.5h31.244zm-28.745 7.5a1.25 1.25 0 000 2.5h24.996a1.25 1.25 0 100-2.5H16.247zm32.495 8.748H21.246a1.25 1.25 0 000 2.5h27.496a1.25 1.25 0 100-2.5zm-12.498 8.749c0-.69-.56-1.25-1.25-1.25H9.998a1.25 1.25 0 000 2.5h24.996c.69 0 1.25-.56 1.25-1.25zm12.498-1.25h-8.749a1.25 1.25 0 000 2.5h8.749a1.25 1.25 0 100-2.5zm-26.246 8.748a1.25 1.25 0 100-2.5H9.998a1.25 1.25 0 000 2.5h12.498zm4.999 0h8.749a1.25 1.25 0 100-2.5h-8.749a1.25 1.25 0 000 2.5z"/><path d="M56.24 57.503c-.69 0-1.25.56-1.25 1.25V71.25a1.25 1.25 0 01-1.25 1.25H3.75a1.25 1.25 0 01-1.25-1.25V3.762c0-.69.56-1.25 1.25-1.25h49.99c.691 0 1.25.56 1.25 1.25v23.471a1.25 1.25 0 002.5 0V3.762a3.75 3.75 0 00-3.75-3.75H3.75A3.75 3.75 0 000 3.762V71.25A3.75 3.75 0 003.75 75h49.99a3.75 3.75 0 003.75-3.75V58.752c0-.69-.56-1.25-1.25-1.25z"/></g></symbol><symbol id="customization" viewBox="0 0 75 75"><g clip-path="url(#clip0)" fill="#EF8B54"><path d="M8.023 4.218a3.228 3.228 0 00-3.225 3.225 3.228 3.228 0 003.225 3.224 3.228 3.228 0 003.224-3.224 3.228 3.228 0 00-3.224-3.225zm0 4.251a1.028 1.028 0 010-2.053 1.028 1.028 0 010 2.053zm8.21-4.251a3.228 3.228 0 00-3.225 3.225 3.229 3.229 0 003.225 3.224 3.228 3.228 0 003.224-3.224 3.228 3.228 0 00-3.224-3.225zm0 4.251a1.028 1.028 0 010-2.053 1.028 1.028 0 010 2.053zm8.21-4.251a3.228 3.228 0 00-3.225 3.225 3.228 3.228 0 003.225 3.224 3.228 3.228 0 003.224-3.224 3.228 3.228 0 00-3.224-3.225zm0 4.251a1.028 1.028 0 010-2.053 1.027 1.027 0 010 2.053z"/><path d="M70.164 0H4.836A4.841 4.841 0 000 4.836v65.328A4.842 4.842 0 004.836 75h65.328A4.842 4.842 0 0075 70.164V53.518a1.1 1.1 0 10-2.198 0v16.646a2.641 2.641 0 01-2.638 2.638H4.836a2.641 2.641 0 01-2.638-2.638V14.947h70.604v31.784a1.099 1.099 0 002.198 0V4.836A4.841 4.841 0 0070.164 0zm2.638 12.75H2.198V4.835a2.64 2.64 0 012.638-2.638h65.328a2.641 2.641 0 012.638 2.638v7.913z"/><path d="M67.6 22.695a3.479 3.479 0 00-3.475-3.475H10.71a3.479 3.479 0 00-3.474 3.475v6.454a1.099 1.099 0 102.198 0v-6.454c0-.705.572-1.277 1.276-1.277h53.414c.704 0 1.276.572 1.276 1.277V42.81c0 .704-.572 1.277-1.276 1.277h-3.46L49.403 31.392a1.804 1.804 0 00-2.627-.078l-5.966 5.963-8.037-9.057a1.81 1.81 0 00-1.296-.607 1.822 1.822 0 00-1.33.528L14.191 44.087h-3.48a1.278 1.278 0 01-1.277-1.277v-6.727a1.1 1.1 0 10-2.198 0v6.727a3.478 3.478 0 003.474 3.474h53.414a3.478 3.478 0 003.474-3.474V22.695zM17.3 44.087L31.405 29.99l10.693 12.05a1.098 1.098 0 101.644-1.458l-1.471-1.658 5.764-5.761 9.693 10.924H17.301zm-6.59 5.274a3.477 3.477 0 00-3.473 3.474v10.78a3.477 3.477 0 003.473 3.474h21.256a3.478 3.478 0 003.474-3.474v-10.78a3.478 3.478 0 00-3.474-3.474H10.71zm22.532 3.474v10.78c0 .704-.573 1.276-1.276 1.276H10.71a1.277 1.277 0 01-1.275-1.276v-10.78c0-.704.572-1.276 1.275-1.276h21.256c.703 0 1.276.572 1.276 1.276zm9.628-3.474a3.477 3.477 0 00-3.474 3.474v10.78a3.477 3.477 0 003.474 3.474h21.255a3.478 3.478 0 003.474-3.474v-10.78a3.478 3.478 0 00-3.474-3.474H42.87zm22.53 3.474v10.78c0 .704-.572 1.276-1.276 1.276H42.87a1.277 1.277 0 01-1.276-1.276v-10.78c0-.704.572-1.276 1.276-1.276h21.255c.704 0 1.276.572 1.276 1.276z"/><path d="M12.84 55.704h2.972a1.098 1.098 0 100-2.198H12.84a1.1 1.1 0 100 2.198zm0 3.723h1.546a1.099 1.099 0 000-2.197H12.84a1.099 1.099 0 100 2.197zm16.996-2.197h-4.102a1.099 1.099 0 100 2.197h4.102a1.098 1.098 0 100-2.197zM19.58 55.704h9.963a1.099 1.099 0 100-2.198H19.58a1.099 1.099 0 000 2.198zm9.963 5.042h-2.971a1.099 1.099 0 100 2.198h2.97a1.1 1.1 0 000-2.198zm-6.74 0h-9.962a1.099 1.099 0 100 2.198h9.963a1.099 1.099 0 000-2.198zm-5.011-1.319h4.28a1.099 1.099 0 000-2.197h-4.28a1.099 1.099 0 100 2.197zM45 55.704h2.97a1.098 1.098 0 100-2.198H45a1.1 1.1 0 100 2.198zm0 3.723h1.545a1.099 1.099 0 100-2.197H45a1.099 1.099 0 100 2.197zm16.995-2.197h-4.102a1.099 1.099 0 100 2.197h4.102a1.099 1.099 0 100-2.197zM51.74 55.704h9.962a1.099 1.099 0 100-2.198h-9.963a1.1 1.1 0 100 2.198zm9.962 5.042h-2.971a1.099 1.099 0 000 2.198h2.971a1.099 1.099 0 000-2.198zm-6.74 0H45a1.099 1.099 0 100 2.198h9.962a1.1 1.1 0 000-2.198zm-5.011-1.319h4.28a1.099 1.099 0 100-2.197h-4.28a1.099 1.099 0 100 2.197zM59.96 27.36a4.19 4.19 0 00-4.185-4.184 4.19 4.19 0 00-4.184 4.185 4.19 4.19 0 004.184 4.185 4.19 4.19 0 004.185-4.185zm-6.172 0a1.988 1.988 0 013.974.001 1.99 1.99 0 01-1.987 1.987 1.989 1.989 0 01-1.987-1.987z"/></g></symbol><symbol id="development" viewBox="0 0 75 75"><g clip-path="url(#clip0)" fill="#EF8B54"><path d="M8.637 27.473a1.095 1.095 0 001.552 0 1.098 1.098 0 000-1.553l-2.665-2.665 2.665-2.665a1.098 1.098 0 00-1.552-1.552l-3.441 3.441a1.098 1.098 0 000 1.552l3.44 3.442zm10.893-4.218l-2.666 2.665a1.097 1.097 0 001.552 1.553l3.442-3.442a1.097 1.097 0 000-1.552l-3.442-3.442a1.097 1.097 0 10-1.551 1.553l2.664 2.665zm-7.64 4.463a1.1 1.1 0 001.423-.62l2.704-6.883a1.098 1.098 0 00-2.043-.803l-2.704 6.883a1.098 1.098 0 00.62 1.423zm-5.297 6.516h7.395a1.098 1.098 0 000-2.196H6.593a1.097 1.097 0 100 2.196zm24.426-2.196h-13a1.098 1.098 0 000 2.196h13a1.098 1.098 0 100-2.196zM6.593 38.864h3.15a1.098 1.098 0 000-2.196h-3.15a1.097 1.097 0 100 2.196zm20.41-2.196a1.097 1.097 0 100 2.196h1.918a1.098 1.098 0 100-2.196h-1.918zm-2.889 1.097c0-.605-.492-1.097-1.097-1.097h-9.422a1.097 1.097 0 100 2.196h9.422c.605 0 1.097-.492 1.097-1.099zm7.19 0c0 .607.492 1.099 1.098 1.099h3.593a1.098 1.098 0 100-2.196h-3.593c-.606 0-1.098.492-1.098 1.097zm-5.977-13.629h3.79a1.098 1.098 0 100-2.196h-3.79a1.098 1.098 0 100 2.195zm8.033 0h23.124a1.097 1.097 0 100-2.196H33.361a1.098 1.098 0 100 2.195zm19.612 2.634h-9.367a1.098 1.098 0 000 2.195h9.367a1.098 1.098 0 000-2.196zm-12.879 0h-3.22a1.097 1.097 0 100 2.195h3.22a1.097 1.097 0 100-2.196zm-14.766 2.195h7.887a1.098 1.098 0 000-2.196h-7.887a1.098 1.098 0 100 2.196zM23.03 41.259h-7.394a1.098 1.098 0 100 2.195h7.394a1.098 1.098 0 000-2.195zm-10.756 0H6.593a1.097 1.097 0 100 2.195h5.68a1.097 1.097 0 100-2.195zm24.16 0h-9.66a1.097 1.097 0 100 2.195h9.66a1.098 1.098 0 000-2.195zm13.063-5.639h-5.282a1.098 1.098 0 000 2.196h5.282a1.097 1.097 0 100-2.196zm9.166 2.196h7.456a1.098 1.098 0 100-2.196h-7.456a1.097 1.097 0 100 2.196zm-3.729-2.196h-1.709a1.098 1.098 0 100 2.196h1.71a1.097 1.097 0 100-2.196zM44.215 49.777h5.282a1.097 1.097 0 100-2.195h-5.282a1.098 1.098 0 000 2.195zm14.448 0h7.456a1.097 1.097 0 100-2.195h-7.456a1.097 1.097 0 100 2.195zm-5.437 0h1.708a1.097 1.097 0 100-2.195h-1.708a1.097 1.097 0 100 2.195zm-3.729 9.767h-5.282a1.098 1.098 0 000 2.195h5.282a1.097 1.097 0 100-2.195zm16.623 0h-7.457a1.097 1.097 0 100 2.195h7.456a1.098 1.098 0 100-2.195zm-11.186 0h-1.709a1.098 1.098 0 100 2.195h1.71a1.097 1.097 0 100-2.195z"/><path d="M70.17.146H4.83A4.837 4.837 0 000 4.977v53.11a4.837 4.837 0 004.831 4.831h4.13a1.097 1.097 0 100-2.194h-4.13a2.638 2.638 0 01-2.635-2.636v-4.164h39.99v1.892h-.871a2.16 2.16 0 00-2.159 2.159v2.748h-23.52a1.098 1.098 0 000 2.196h10.553v3.936h-3.314a4.014 4.014 0 00-4.01 4.01v2.37c0 1.01.821 1.83 1.83 1.83h33.527c1.008 0 1.83-.82 1.83-1.83v-2.37c0-2.21-1.8-4.01-4.01-4.01h-3.315v-1.387H69.02a2.16 2.16 0 002.158-2.16v-.516a4.838 4.838 0 003.739-4.704L75 4.977a4.835 4.835 0 00-4.83-4.83zM41.352 51.311v-5.262h27.631v5.262H41.352zm3.028-7.457v-2.31h21.574v2.31H44.38zm21.574 9.652v2.31H44.38v-2.31h21.574zm-37.57 9.413h10.772v.39a2.16 2.16 0 002.159 2.159h5.217v1.387H28.384v-3.937zm23.658 6.132c1 0 1.814.814 1.814 1.814v2.005H21.061v-2.005c0-1 .814-1.814 1.814-1.814h29.167zm16.941-5.779H41.352v-5.26h27.631v5.26zm3.739-5.184c0 1.063-.634 1.98-1.543 2.395v-2.509c0-1.19-.97-2.158-2.16-2.158h-.87v-1.892h4.573v4.164zm0-6.359h-1.58c.023-.124.037-5.716.037-5.716 0-1.191-.97-2.16-2.16-2.16h-.87v-2.309h.87c1.19 0 2.16-.968 2.16-2.159v-5.334c0-1.19-.97-2.16-2.16-2.16h-6.2a1.097 1.097 0 100 2.196h6.164v5.262H41.352v-5.262H55.99a1.097 1.097 0 100-2.195H41.315c-1.19 0-2.159.968-2.159 2.159v5.334c0 1.19.968 2.16 2.159 2.16h.87v2.309h-.87c-1.19 0-2.159.968-2.159 2.159 0 0 .014 5.592.036 5.716H2.196V15.077h70.526V51.73zm0-38.847H2.276V4.977a2.638 2.638 0 012.636-2.635h65.174a2.638 2.638 0 012.636 2.635v7.905z"/><path d="M8.095 4.36a3.224 3.224 0 00-3.221 3.22 3.225 3.225 0 003.221 3.222 3.226 3.226 0 003.221-3.222 3.225 3.225 0 00-3.221-3.22zm0 4.246c-.565 0-1.026-.46-1.026-1.026 0-.565.46-1.026 1.026-1.026a1.027 1.027 0 010 2.052zm8.202-4.246a3.225 3.225 0 00-3.222 3.22 3.225 3.225 0 003.222 3.222 3.225 3.225 0 003.22-3.222 3.225 3.225 0 00-3.22-3.22zm0 4.246a1.027 1.027 0 010-2.052 1.027 1.027 0 010 2.052zm8.2-4.246a3.224 3.224 0 00-3.22 3.22 3.225 3.225 0 003.22 3.222A3.226 3.226 0 0027.72 7.58a3.225 3.225 0 00-3.222-3.22zm0 4.246c-.565 0-1.026-.46-1.026-1.026 0-.565.46-1.026 1.026-1.026a1.027 1.027 0 010 2.052z"/></g></symbol><symbol id="geometry" viewBox="0 0 1920 1034"><path d="M333.624 712.482l2.503-3.984a7.029 7.029 0 003.768 1.091 7.14 7.14 0 003.388-.856 7.014 7.014 0 002.62-2.458v-.004a7.032 7.032 0 001.094-3.768 7.141 7.141 0 00-.857-3.386 7.018 7.018 0 00-2.456-2.618 7.037 7.037 0 00-3.763-1.088 7.157 7.157 0 00-3.391.856 7.035 7.035 0 00-2.622 2.458l-.002.004a7.022 7.022 0 00-1.088 3.761 7.14 7.14 0 00.857 3.391 7.01 7.01 0 002.456 2.62l-.004-.003-2.503 3.984-2.507 3.983a16.441 16.441 0 01-5.724-6.114 16.55 16.55 0 01-1.986-7.861 16.422 16.422 0 012.537-8.775l-.001.002a16.42 16.42 0 016.115-5.729 16.548 16.548 0 017.863-1.988 16.44 16.44 0 018.771 2.533 16.41 16.41 0 015.728 6.112 16.53 16.53 0 011.987 7.858 16.459 16.459 0 01-2.537 8.78v-.002a16.438 16.438 0 01-6.111 5.731 16.548 16.548 0 01-7.864 1.988 16.465 16.465 0 01-8.775-2.533l-.003-.002 2.507-3.983z" fill="#1E1E1F"/><path fill-rule="evenodd" clip-rule="evenodd" d="M194.322 237.898l-30.578-20.903-8.092 11.837 7.826 5.351-.392.573-12.388 18.122-1.147-.785 11.996-17.547-6.68-4.566-12.027 17.594 30.578 20.904 20.904-30.58zm-17.129 37.369l24.826-36.315a3.498 3.498 0 00.547-2.603 3.495 3.495 0 00-1.454-2.226l-36.315-24.825a3.49 3.49 0 00-2.601-.547 3.492 3.492 0 00-2.227 1.454l-24.827 36.316a3.498 3.498 0 00-.545 2.603 3.5 3.5 0 001.453 2.226l9.548 6.526-8.093 11.838-35.166-24.04 24.042-35.168 22.734 15.541.784-1.147-23.881-16.326-25.611 37.463 37.461 25.609 8.877-12.985 25.619 17.514a3.505 3.505 0 002.603.547c.899-.17 1.71-.7 2.226-1.455z" fill="#1E1E1F"/><g opacity=".03" fill="#fff"><path d="M1679.09 644.274c.43-.136.67-.293.9-.506.19-.189.37-.442.55-.805.32-.628.58-1.581.82-2.705.37-1.688.67-3.742 1.63-5.771a9.188 9.188 0 012.1-2.873c.94-.857 2.14-1.535 3.54-1.954a2.295 2.295 0 111.32 4.396c-.71.217-1.21.493-1.61.812-.34.279-.62.598-.87.988-.44.677-.77 1.59-1.04 2.664-.41 1.612-.64 3.522-1.33 5.428-.34.951-.83 1.925-1.6 2.789-.77.864-1.85 1.566-3.09 1.933a2.294 2.294 0 01-2.86-1.538 2.286 2.286 0 011.54-2.858zm-25.52 7.662c.43-.136.67-.293.9-.506.19-.189.37-.442.55-.805.32-.628.58-1.58.82-2.704.37-1.688.67-3.741 1.63-5.771a9.195 9.195 0 012.1-2.872c.94-.857 2.14-1.535 3.54-1.954a2.295 2.295 0 111.32 4.396c-.71.217-1.21.493-1.61.811-.34.28-.62.6-.87.989-.44.676-.77 1.589-1.04 2.663-.41 1.612-.64 3.522-1.33 5.428-.34.95-.83 1.924-1.6 2.788-.77.864-1.85 1.566-3.09 1.932a2.294 2.294 0 11-1.32-4.395z"/><path d="M1680.46 648.652a6.7 6.7 0 01-3.2.187 7.312 7.312 0 01-2.37-.909c-1.22-.714-2.18-1.623-3.08-2.499-1.33-1.321-2.54-2.581-3.68-3.256-.58-.343-1.11-.551-1.68-.639-.56-.085-1.18-.063-2.01.181a2.3 2.3 0 01-2.86-1.538 2.303 2.303 0 011.54-2.858c1.22-.369 2.42-.49 3.54-.383a8.7 8.7 0 012.71.718c1.43.639 2.57 1.554 3.57 2.46 1.48 1.366 2.69 2.745 3.73 3.495.51.38.94.596 1.3.687.36.088.67.101 1.17-.041a2.3 2.3 0 012.86 1.537 2.303 2.303 0 01-1.54 2.858zm-25.59 7.683a6.692 6.692 0 01-3.2.186 7.344 7.344 0 01-2.36-.909c-1.22-.715-2.18-1.623-3.08-2.498-1.33-1.323-2.54-2.581-3.69-3.256-.57-.343-1.1-.552-1.67-.64-.56-.085-1.18-.063-2.01.181l-.66-2.192 1 2.06a2.16 2.16 0 01-.34.132l-.66-2.192 1 2.06a2.304 2.304 0 01-3.07-1.066 2.299 2.299 0 011.41-3.198c1.22-.369 2.42-.49 3.54-.383.98.092 1.89.356 2.71.718 1.43.639 2.57 1.553 3.57 2.459 1.47 1.367 2.69 2.746 3.73 3.496.51.38.94.596 1.3.688.36.086.66.101 1.17-.042a2.287 2.287 0 012.85 1.538 2.287 2.287 0 01-1.54 2.858zm8.48 8.306a4.807 4.807 0 002.7-2.007c.61-.913.96-1.994 1.24-3.13.55-2.273.83-4.789 1.94-6.67.74-1.255 1.81-2.245 3.65-2.802l-.27-.879c0 .001 0 .002-.01.003-1.52.458-2.64 1.236-3.45 2.198-.81.964-1.31 2.097-1.67 3.269-.72 2.343-.92 4.872-1.73 6.669-.55 1.199-1.3 2.053-2.68 2.474l.26.88.02-.005zm-25.52 7.662a4.807 4.807 0 002.7-2.007c.61-.913.96-1.994 1.24-3.13.55-2.272.83-4.787 1.94-6.668.74-1.254 1.81-2.245 3.65-2.802l-.27-.879c0 .001 0 .002-.01.003-1.52.458-2.64 1.236-3.45 2.198-.81.963-1.31 2.097-1.67 3.269-.72 2.342-.92 4.872-1.73 6.668-.55 1.198-1.3 2.052-2.68 2.474l.26.879.02-.005z"/><path d="M1663.36 664.635c.01-.002.02-.004.02-.006l-.26-.88c-1.04.309-1.91.211-2.76-.145-.85-.357-1.67-.993-2.49-1.758-1.66-1.525-3.31-3.554-5.51-4.646-1.47-.727-3.21-1.002-5.24-.392 0 .002-.01.004-.02.006l.27.879c1.37-.412 2.53-.374 3.57-.068 1.04.309 1.98.902 2.88 1.636 1.79 1.464 3.34 3.483 5.21 4.674 1.24.793 2.69 1.194 4.33.7zm-25.56 7.677l-.13-.44-.13-.44c-1.04.309-1.91.209-2.76-.146-.85-.356-1.67-.993-2.49-1.759-1.66-1.524-3.31-3.552-5.51-4.645-1.47-.727-3.21-1.002-5.23-.393l-.03.007-.07.027.4.826-.19-.407.13.433c1.38-.412 2.53-.374 3.57-.067 1.04.308 1.98.901 2.87 1.635 1.8 1.463 3.35 3.483 5.22 4.674 1.24.792 2.68 1.195 4.33.701.01-.002.01-.005.02-.006z"/></g><g opacity=".03" fill="#fff"><path d="M745.609 718.972c-.518-.463-.91-.653-1.366-.78-.4-.107-.876-.149-1.491-.1-1.071.078-2.524.482-4.181 1.054-2.501.835-5.428 2.05-8.835 2.387-1.702.16-3.548.068-5.406-.497-1.859-.558-3.687-1.596-5.336-3.106a3.502 3.502 0 014.721-5.174c.844.766 1.594 1.198 2.323 1.469a6.186 6.186 0 001.98.371c1.229.04 2.685-.24 4.301-.731 2.436-.719 5.117-1.916 8.147-2.517 1.519-.288 3.174-.417 4.912-.079 1.734.329 3.494 1.183 4.952 2.529a3.503 3.503 0 01-4.721 5.174zm30.035 27.406c-.517-.462-.911-.653-1.367-.78-.398-.106-.875-.149-1.491-.1-1.07.078-2.521.482-4.179 1.053-2.5.836-5.426 2.05-8.834 2.387-1.701.16-3.546.069-5.406-.495-1.858-.56-3.685-1.597-5.334-3.107a3.503 3.503 0 014.721-5.174c.844.766 1.594 1.198 2.321 1.469a6.197 6.197 0 001.981.37c1.228.041 2.683-.239 4.3-.731 2.436-.718 5.116-1.916 8.146-2.515 1.518-.289 3.174-.417 4.912-.079 1.733.328 3.493 1.182 4.95 2.528a3.501 3.501 0 11-4.72 5.174z"/><path d="M750.268 713.745c1.278 1.159 2.219 2.572 2.753 4.044.475 1.286.653 2.585.666 3.812.018 2.154-.418 4.124-.861 5.986-.687 2.779-1.387 5.35-1.372 7.381 0 1.019.145 1.882.473 2.691.333.807.849 1.605 1.815 2.492a3.5 3.5 0 01.226 4.947 3.5 3.5 0 01-4.947.227c-1.441-1.312-2.539-2.785-3.276-4.336a13.16 13.16 0 01-1.182-4.106c-.286-2.375.017-4.587.423-6.6.63-3.007 1.481-5.682 1.652-7.623.096-.97.038-1.707-.122-2.246-.17-.544-.389-.95-.969-1.495a3.501 3.501 0 114.721-5.174zm30.112 27.472c1.279 1.159 2.218 2.574 2.751 4.045.474 1.285.652 2.584.666 3.812.017 2.152-.419 4.123-.861 5.983-.688 2.781-1.387 5.351-1.372 7.382 0 1.018.144 1.88.471 2.688.334.809.849 1.605 1.814 2.491l.001.001-2.354 2.58 1.916-2.919c.217.143.365.273.438.339l-2.354 2.58 1.916-2.919a3.503 3.503 0 11-4.283 5.513l-.001-.001c-1.44-1.31-2.538-2.784-3.275-4.334a13.165 13.165 0 01-1.181-4.106c-.285-2.372.017-4.584.423-6.597.63-3.008 1.481-5.682 1.653-7.625.095-.969.038-1.706-.122-2.246-.171-.542-.389-.95-.969-1.494a3.502 3.502 0 114.723-5.173zm4.234-17.601c-1.449-1.323-3.09-1.898-4.751-1.973-1.67-.078-3.362.309-5.068.834-3.407 1.062-6.921 2.666-10.254 2.687-2.224.012-4.358-.61-6.525-2.575l-.944 1.035.012.01c1.795 1.638 3.689 2.49 5.581 2.792 1.897.305 3.773.073 5.591-.371 3.631-.897 7.099-2.618 10.092-2.955 2.001-.221 3.706.091 5.339 1.566l.944-1.035a.122.122 0 00-.017-.015zm30.035 27.406c-1.448-1.322-3.09-1.898-4.75-1.972-1.671-.079-3.362.309-5.069.833-3.406 1.061-6.919 2.664-10.251 2.686-2.224.012-4.358-.61-6.524-2.574l-.944 1.034.013.012c1.794 1.637 3.688 2.489 5.579 2.79 1.896.306 3.773.073 5.591-.371 3.629-.897 7.098-2.617 10.09-2.955 2-.22 3.704.091 5.338 1.566l.944-1.034-.017-.015z"/><path d="M784.595 723.601l-.026-.023-.944 1.035c1.221 1.122 1.772 2.335 1.972 3.726.197 1.389.006 2.959-.35 4.638-.699 3.364-2.061 7.114-1.761 10.86.198 2.49 1.198 4.979 3.588 7.159l.025.022.944-1.035c-1.62-1.481-2.474-3.019-2.89-4.626-.413-1.607-.374-3.302-.114-5.046.513-3.493 1.94-7.109 2.034-10.491.068-2.24-.542-4.452-2.478-6.219zm30.086 27.45l-.473.516-.472.517c1.22 1.121 1.77 2.336 1.97 3.727.198 1.388.006 2.959-.35 4.638-.699 3.362-2.06 7.113-1.761 10.859.198 2.489 1.198 4.977 3.586 7.156l.026.023.089.07.769-1.172-.379.578.465-.511-.001-.001c-1.619-1.48-2.473-3.018-2.888-4.624-.414-1.606-.374-3.3-.113-5.046.512-3.492 1.939-7.107 2.033-10.489.068-2.24-.541-4.453-2.476-6.219l-.025-.022z"/></g><path fill-rule="evenodd" clip-rule="evenodd" d="M1262.96 87.02l44-25.385a3.534 3.534 0 001.3-4.837 3.544 3.544 0 00-4.84-1.298l-44 25.385a3.542 3.542 0 00-1.3 4.837 3.545 3.545 0 004.84 1.298zm23.31 3.424l-44.01 25.385.71 1.227 44.01-25.385-.71-1.227z" fill="#1E1E1F"/><g filter="url(#filter0_f)"><path fill-rule="evenodd" clip-rule="evenodd" d="M76.069 890.337c-4.87 6.662-12.225 11.445-21.02 12.822a5.996 5.996 0 001.852 11.847c24.099-3.771 40.573-26.353 36.813-50.449-3.77-24.097-26.349-40.575-50.449-36.811a5.997 5.997 0 00-4.998 6.849 6 6 0 004.486 4.896 37.263 37.263 0 01-2.818 4.507c-5.578 7.646-14.062 13.156-24.151 14.733l.37 2.369c13.176-2.059 23.796-10.429 29.262-21.552 8.69-1.275 17.035 1.037 23.63 5.84 6.661 4.872 11.442 12.225 12.818 21.02 1.372 8.794-.937 17.257-5.795 23.929zM4.37 785.687L4 783.318c21.48-3.354 41.609 11.336 44.965 32.813.586 3.751.621 7.459.167 11.043a46.67 46.67 0 00-2.437.128 36.894 36.894 0 00-.1-10.801c-1.576-10.086-7.086-18.571-14.73-24.151-7.644-5.578-17.405-8.237-27.495-6.663z" fill="#1E1E1F"/></g><g opacity=".03" fill="#fff"><path d="M131.596 571.091l9.091-16.906a2.295 2.295 0 014.043 2.173l-9.091 16.907a2.295 2.295 0 11-4.043-2.174z"/><path d="M145.592 570.322l-16.907-9.09a2.295 2.295 0 112.173-4.042l16.908 9.09a2.294 2.294 0 01-2.174 4.042z"/></g><g filter="url(#filter1_f)"><path fill-rule="evenodd" clip-rule="evenodd" d="M1866.69 75.94L1896 91.697c5.04 2.708 11.32.821 14.03-4.219 2.71-5.036.82-11.317-4.22-14.025l-29.31-15.758 15.61-29.024c2.71-5.036.82-11.317-4.22-14.03-5.04-2.707-11.32-.817-14.03 4.22l-15.61 29.023-28.75-15.46c-5.04-2.708-11.32-.821-14.03 4.219-2.71 5.036-.82 11.317 4.22 14.025l28.75 15.461-15.61 29.04c-2.71 5.036-.82 11.32 4.22 14.029 5.04 2.709 11.32.818 14.03-4.219l15.61-29.039z" fill="#1E1E1F"/></g><g filter="url(#filter2_f)"><path fill-rule="evenodd" clip-rule="evenodd" d="M1406.62 926.873l.12.427 10.34 38.723-11.74 11.722-40.42 40.385-14.74-55.2-14.76-55.202 55.16 14.835 16.04 4.31zm-.84-3.168l-14.46-3.884-59.91-16.116 16.03 59.958 16.01 59.957 43.9-43.863 10.58-10.564 4.19 15.681a7.097 7.097 0 005.02 5.026 7.096 7.096 0 006.86-1.835l42.16-42.12 42.16-42.097a7.111 7.111 0 001.85-6.861 7.114 7.114 0 00-5.02-5.025l-57.56-15.461-57.54-15.474a7.11 7.11 0 00-8.71 8.693l14.44 53.985zm26.89 45.613l-12.21-45.686-12.21-45.69 45.65 12.278 45.68 12.267-33.46 33.41-33.45 33.421zm18.59-33.4l-21.68 21.64-.84-3.171 17.03-17.003-23.24-6.239-.85-3.17 29.58 7.943z" fill="#1E1E1F"/></g><g opacity=".03" fill="#fff"><path d="M1302.56 364.262a19.848 19.848 0 00-8.87-12.407c-4.34-2.7-9.67-3.746-15.04-2.503-5.37 1.246-9.69 4.53-12.4 8.864a19.817 19.817 0 00-2.51 15.041 3.712 3.712 0 11-7.23 1.676c-3.41-14.716 5.75-29.404 20.47-32.817 14.71-3.406 29.4 5.754 32.81 20.47a3.707 3.707 0 01-2.78 4.455 3.71 3.71 0 01-4.45-2.779z"/><path d="M1230.83 401.185l1.45-.335c-1.43-6.161-.22-12.31 2.88-17.282a22.798 22.798 0 0114.25-10.186 22.91 22.91 0 016.67-.547c-.08-.501-.14-1.002-.19-1.5-2.23-.119-4.52.07-6.81.6-13.12 3.04-21.29 16.134-18.25 29.25zm46.05-10.671l1.45-.335c-1.87-8.055-7.53-14.243-14.65-17.115l.03.137c.12.51.12 1.019.04 1.503 1.02.446 2 .966 2.95 1.555 4.97 3.102 8.76 8.094 10.18 14.255z"/></g></symbol><symbol id="icon-arrow-down" viewBox="0 0 15 15"><path d="M.744 7.5A6.761 6.761 0 007.5 14.256 6.761 6.761 0 0014.256 7.5C14.256 3.779 11.22.744 7.5.744S.744 3.78.744 7.5zm12.558 0A5.811 5.811 0 017.5 13.302 5.811 5.811 0 011.698 7.5 5.811 5.811 0 017.5 1.698 5.811 5.811 0 0113.302 7.5z" fill="#000"/><path d="M4.128 5.942a.466.466 0 00-.14.337c0 .116.047.244.14.337l3.07 3.07c.093.093.209.14.337.14a.466.466 0 00.337-.14l3.07-3.07a.477.477 0 00-.675-.674L7.535 8.674 4.802 5.942a.477.477 0 00-.674 0z" fill="#000"/></symbol><symbol id="icon-arrow-left" viewBox="0 0 12 20"><path fill-rule="evenodd" clip-rule="evenodd" d="M.41 9.87l1.413 1.414 8.229 8.228 1.414-1.414L3.238 9.87l8.228-8.228L10.052.227 1.824 8.456.408 9.87z" fill="#EF8B54"/></symbol><symbol id="icon-arrow-right-top" viewBox="0 0 14 14"><path fill-rule="evenodd" clip-rule="evenodd" d="M6.219 1.458a.385.385 0 010-.77h6.37c.127 0 .24.062.31.157.095.07.156.183.156.31v6.37a.385.385 0 11-.77 0V1.857L.823 13.319a.385.385 0 01-.544-.544L11.596 1.458H6.219z" fill="#fff"/></symbol><symbol id="icon-arrow-right" viewBox="0 0 12 20"><path fill-rule="evenodd" clip-rule="evenodd" d="M11.59 9.87l-1.413 1.414-8.229 8.228-1.414-1.414L8.762 9.87.534 1.642 1.948.227l8.228 8.229 1.415 1.414z" fill="#EF8B54"/></symbol><symbol id="icon-big-arrow-right" viewBox="0 0 20 50"><path d="M1.676 49.152l16.369-24.92L1.822 1" stroke="#fff" stroke-width="2"/></symbol><symbol id="icon-browser" viewBox="0 0 75 75"><g clip-path="url(#clip0)" fill="#EF8B54"><path d="M8.023 4.218a3.228 3.228 0 00-3.225 3.225 3.228 3.228 0 003.225 3.224 3.228 3.228 0 003.224-3.224 3.228 3.228 0 00-3.224-3.225zm0 4.251a1.028 1.028 0 010-2.053 1.028 1.028 0 010 2.053zm8.21-4.251a3.228 3.228 0 00-3.225 3.225 3.229 3.229 0 003.225 3.224 3.228 3.228 0 003.224-3.224 3.228 3.228 0 00-3.224-3.225zm0 4.251a1.028 1.028 0 010-2.053 1.028 1.028 0 010 2.053zm8.21-4.251a3.228 3.228 0 00-3.225 3.225 3.228 3.228 0 003.225 3.224 3.228 3.228 0 003.224-3.224 3.228 3.228 0 00-3.224-3.225zm0 4.251a1.028 1.028 0 010-2.053 1.027 1.027 0 010 2.053z"/><path d="M70.164 0H4.836A4.841 4.841 0 000 4.836v65.328A4.842 4.842 0 004.836 75h65.328A4.842 4.842 0 0075 70.164V53.518a1.1 1.1 0 10-2.198 0v16.646a2.641 2.641 0 01-2.638 2.638H4.836a2.641 2.641 0 01-2.638-2.638V14.947h70.604v31.784a1.099 1.099 0 002.198 0V4.836A4.841 4.841 0 0070.164 0zm2.638 12.75H2.198V4.835a2.64 2.64 0 012.638-2.638h65.328a2.641 2.641 0 012.638 2.638v7.913z"/><path d="M67.6 22.695a3.479 3.479 0 00-3.475-3.475H10.71a3.479 3.479 0 00-3.474 3.475v6.454a1.099 1.099 0 102.198 0v-6.454c0-.705.572-1.277 1.276-1.277h53.414c.704 0 1.276.572 1.276 1.277V42.81c0 .704-.572 1.277-1.276 1.277h-3.46L49.403 31.392a1.804 1.804 0 00-2.627-.078l-5.966 5.963-8.037-9.057a1.81 1.81 0 00-1.296-.607 1.822 1.822 0 00-1.33.528L14.191 44.087h-3.48a1.278 1.278 0 01-1.277-1.277v-6.727a1.1 1.1 0 10-2.198 0v6.727a3.478 3.478 0 003.474 3.474h53.414a3.478 3.478 0 003.474-3.474V22.695zM17.3 44.087L31.405 29.99l10.693 12.05a1.098 1.098 0 101.644-1.458l-1.471-1.658 5.764-5.761 9.693 10.924H17.301zm-6.59 5.274a3.477 3.477 0 00-3.473 3.474v10.78a3.477 3.477 0 003.473 3.474h21.256a3.478 3.478 0 003.474-3.474v-10.78a3.478 3.478 0 00-3.474-3.474H10.71zm22.532 3.474v10.78c0 .704-.573 1.276-1.276 1.276H10.71a1.277 1.277 0 01-1.275-1.276v-10.78c0-.704.572-1.276 1.275-1.276h21.256c.703 0 1.276.572 1.276 1.276zm9.628-3.474a3.477 3.477 0 00-3.474 3.474v10.78a3.477 3.477 0 003.474 3.474h21.255a3.478 3.478 0 003.474-3.474v-10.78a3.478 3.478 0 00-3.474-3.474H42.87zm22.53 3.474v10.78c0 .704-.572 1.276-1.276 1.276H42.87a1.277 1.277 0 01-1.276-1.276v-10.78c0-.704.572-1.276 1.276-1.276h21.255c.704 0 1.276.572 1.276 1.276z"/><path d="M12.84 55.704h2.972a1.098 1.098 0 100-2.198H12.84a1.1 1.1 0 100 2.198zm0 3.723h1.546a1.099 1.099 0 000-2.197H12.84a1.099 1.099 0 100 2.197zm16.996-2.197h-4.102a1.099 1.099 0 100 2.197h4.102a1.098 1.098 0 100-2.197zM19.58 55.704h9.963a1.099 1.099 0 100-2.198H19.58a1.099 1.099 0 000 2.198zm9.963 5.042h-2.971a1.099 1.099 0 100 2.198h2.97a1.1 1.1 0 000-2.198zm-6.74 0h-9.962a1.099 1.099 0 100 2.198h9.963a1.099 1.099 0 000-2.198zm-5.011-1.319h4.28a1.099 1.099 0 000-2.197h-4.28a1.099 1.099 0 100 2.197zM45 55.704h2.97a1.098 1.098 0 100-2.198H45a1.1 1.1 0 100 2.198zm0 3.723h1.545a1.099 1.099 0 100-2.197H45a1.099 1.099 0 100 2.197zm16.995-2.197h-4.102a1.099 1.099 0 100 2.197h4.102a1.099 1.099 0 100-2.197zM51.74 55.704h9.962a1.099 1.099 0 100-2.198h-9.963a1.1 1.1 0 100 2.198zm9.962 5.042h-2.971a1.099 1.099 0 000 2.198h2.971a1.099 1.099 0 000-2.198zm-6.74 0H45a1.099 1.099 0 100 2.198h9.962a1.1 1.1 0 000-2.198zm-5.011-1.319h4.28a1.099 1.099 0 100-2.197h-4.28a1.099 1.099 0 100 2.197zM59.96 27.36a4.19 4.19 0 00-4.185-4.184 4.19 4.19 0 00-4.184 4.185 4.19 4.19 0 004.184 4.185 4.19 4.19 0 004.185-4.185zm-6.172 0a1.988 1.988 0 013.974.001 1.99 1.99 0 01-1.987 1.987 1.989 1.989 0 01-1.987-1.987z"/></g></symbol><symbol id="icon-burger-menu" viewBox="0 0 19 10"><g fill="#FFF" fill-rule="evenodd"><rect x=".75" y=".75" width="17.5" height="1.25" rx=".625"/><rect x=".75" y="4.5" width="17.5" height="1.25" rx=".625"/><rect x=".75" y="8.25" width="17.5" height="1.25" rx=".625"/></g></symbol><symbol id="icon-check" viewBox="0 0 16 12"><path fill="#EC5C36" d="M13.607 0l1.725 1.475-8.518 9.967-1.725-1.474z"/><path fill="#EC5C36" d="M.645 6.24l1.468-1.729 5.922 5.01-1.468 1.73z"/></symbol><symbol id="icon-close" viewBox="0 0 62 62"><path fill="#C4C4C4" d="M13.918 17.011l3.093-3.093L47.94 44.847l-3.093 3.093z"/><path fill="#C4C4C4" d="M17.01 47.94l-3.092-3.093 30.929-30.93 3.092 3.094z"/></symbol><symbol id="icon-contract" viewBox="0 0 75 75"><g clip-path="url(#clip0)" fill="#EF8B54"><path d="M74.862 17.785a3.748 3.748 0 00-1.75-2.275 3.75 3.75 0 00-5.124 1.375l-.624 1.087a1.25 1.25 0 00-1.7.45l-3.175 5.412-1.087-.625a1.251 1.251 0 00-1.712.462 1.25 1.25 0 00.462 1.7l1.088.625-10.624 18.409-2.624 7.012-1.25 2.336a3.75 3.75 0 00.2 4.05l-2.812 3.45-.787-1.975a2.499 2.499 0 00-4.462-.35l-.45.762-.425-5a2.5 2.5 0 00-4.861-.586l-3.075 9.223a1.25 1.25 0 00.787 1.575c.122.057.253.09.388.1a1.25 1.25 0 001.187-.85l3.062-9.223.438 5.073a2.5 2.5 0 004.636 1.075l.463-.762.775 1.962a2.499 2.499 0 004.274.637l2.912-3.686c.322.084.654.126.987.125a3.75 3.75 0 003.262-1.85l1.25-2.087 4.762-5.787 10.735-18.634 1.088.625a1.25 1.25 0 01.462 1.712l-4.999 8.661a1.248 1.248 0 00.4 1.762 1.249 1.249 0 001.712-.462l5-8.661a3.747 3.747 0 00-1.376-5.124l-1.087-.625 3.124-5.412a1.25 1.25 0 00-.45-1.7l.626-1.087a3.748 3.748 0 00.374-2.9zm-4.712.35c.166-.29.44-.502.763-.588a1.32 1.32 0 01.95.125c.29.166.5.44.588.763.079.32.034.66-.126.95l-.624 1.087-2.175-1.25.624-1.088zM53.116 53.028l-.625-.363-1.85-1.075 1.775-4.749 3.937 2.275-3.237 3.912zm-3.75 3.611a1.249 1.249 0 01-.374-1.637l.625-1.087 2.174 1.25-.625 1.075a1.25 1.25 0 01-1.8.4zm8.412-9.572l-4.325-2.5 9.999-17.323 4.324 2.5-9.998 17.323zm11.248-19.485l-4.324-2.5 2.5-4.324 4.323 2.5-2.5 4.324zM19.721 56.016l-4.423 4.412-2.65-2.65a1.25 1.25 0 10-1.762 1.775l2.65 2.65a2.499 2.499 0 001.762.724 2.5 2.5 0 001.774-.725l4.412-4.424a1.25 1.25 0 00-1.763-1.762z"/><path d="M5 59.377c0 5.868 4.755 10.624 10.622 10.624s10.623-4.756 10.623-10.624a1.25 1.25 0 00-2.5 0 8.124 8.124 0 11-8.123-8.123 8.053 8.053 0 014.874 1.625 1.25 1.25 0 101.5-2A10.625 10.625 0 005 59.377zM44.992 10.01a1.25 1.25 0 100-2.499H12.498c-.69 0-1.25.56-1.25 1.25v5c0 .69.56 1.249 1.25 1.249h32.494a1.25 1.25 0 100-2.5H13.748v-2.5h31.244zm-28.745 7.5a1.25 1.25 0 000 2.5h24.996a1.25 1.25 0 100-2.5H16.247zm32.495 8.748H21.246a1.25 1.25 0 000 2.5h27.496a1.25 1.25 0 100-2.5zm-12.498 8.749c0-.69-.56-1.25-1.25-1.25H9.998a1.25 1.25 0 000 2.5h24.996c.69 0 1.25-.56 1.25-1.25zm12.498-1.25h-8.749a1.25 1.25 0 000 2.5h8.749a1.25 1.25 0 100-2.5zm-26.246 8.748a1.25 1.25 0 100-2.5H9.998a1.25 1.25 0 000 2.5h12.498zm4.999 0h8.749a1.25 1.25 0 100-2.5h-8.749a1.25 1.25 0 000 2.5z"/><path d="M56.24 57.503c-.69 0-1.25.56-1.25 1.25V71.25a1.25 1.25 0 01-1.25 1.25H3.75a1.25 1.25 0 01-1.25-1.25V3.762c0-.69.56-1.25 1.25-1.25h49.99c.691 0 1.25.56 1.25 1.25v23.471a1.25 1.25 0 002.5 0V3.762a3.75 3.75 0 00-3.75-3.75H3.75A3.75 3.75 0 000 3.762V71.25A3.75 3.75 0 003.75 75h49.99a3.75 3.75 0 003.75-3.75V58.752c0-.69-.56-1.25-1.25-1.25z"/></g></symbol><symbol id="icon-data" viewBox="0 0 75 75"><g clip-path="url(#clip0)" fill="#EF8B54"><path d="M8.637 27.473a1.095 1.095 0 001.552 0 1.098 1.098 0 000-1.553l-2.665-2.665 2.665-2.665a1.098 1.098 0 00-1.552-1.552l-3.441 3.441a1.098 1.098 0 000 1.552l3.44 3.442zm10.893-4.218l-2.666 2.665a1.097 1.097 0 001.552 1.553l3.442-3.442a1.097 1.097 0 000-1.552l-3.442-3.442a1.097 1.097 0 10-1.551 1.553l2.664 2.665zm-7.64 4.463a1.1 1.1 0 001.423-.62l2.704-6.883a1.098 1.098 0 00-2.043-.803l-2.704 6.883a1.098 1.098 0 00.62 1.423zm-5.297 6.516h7.395a1.098 1.098 0 000-2.196H6.593a1.097 1.097 0 100 2.196zm24.426-2.196h-13a1.098 1.098 0 000 2.196h13a1.098 1.098 0 100-2.196zM6.593 38.864h3.15a1.098 1.098 0 000-2.196h-3.15a1.097 1.097 0 100 2.196zm20.41-2.196a1.097 1.097 0 100 2.196h1.918a1.098 1.098 0 100-2.196h-1.918zm-2.889 1.097c0-.605-.492-1.097-1.097-1.097h-9.422a1.097 1.097 0 100 2.196h9.422c.605 0 1.097-.492 1.097-1.099zm7.19 0c0 .607.492 1.099 1.098 1.099h3.593a1.098 1.098 0 100-2.196h-3.593c-.606 0-1.098.492-1.098 1.097zm-5.977-13.629h3.79a1.098 1.098 0 100-2.196h-3.79a1.098 1.098 0 100 2.195zm8.033 0h23.124a1.097 1.097 0 100-2.196H33.361a1.098 1.098 0 100 2.195zm19.612 2.634h-9.367a1.098 1.098 0 000 2.195h9.367a1.098 1.098 0 000-2.196zm-12.879 0h-3.22a1.097 1.097 0 100 2.195h3.22a1.097 1.097 0 100-2.196zm-14.766 2.195h7.887a1.098 1.098 0 000-2.196h-7.887a1.098 1.098 0 100 2.196zM23.03 41.259h-7.394a1.098 1.098 0 100 2.195h7.394a1.098 1.098 0 000-2.195zm-10.756 0H6.593a1.097 1.097 0 100 2.195h5.68a1.097 1.097 0 100-2.195zm24.16 0h-9.66a1.097 1.097 0 100 2.195h9.66a1.098 1.098 0 000-2.195zm13.063-5.639h-5.282a1.098 1.098 0 000 2.196h5.282a1.097 1.097 0 100-2.196zm9.166 2.196h7.456a1.098 1.098 0 100-2.196h-7.456a1.097 1.097 0 100 2.196zm-3.729-2.196h-1.709a1.098 1.098 0 100 2.196h1.71a1.097 1.097 0 100-2.196zM44.215 49.777h5.282a1.097 1.097 0 100-2.195h-5.282a1.098 1.098 0 000 2.195zm14.448 0h7.456a1.097 1.097 0 100-2.195h-7.456a1.097 1.097 0 100 2.195zm-5.437 0h1.708a1.097 1.097 0 100-2.195h-1.708a1.097 1.097 0 100 2.195zm-3.729 9.767h-5.282a1.098 1.098 0 000 2.195h5.282a1.097 1.097 0 100-2.195zm16.623 0h-7.457a1.097 1.097 0 100 2.195h7.456a1.098 1.098 0 100-2.195zm-11.186 0h-1.709a1.098 1.098 0 100 2.195h1.71a1.097 1.097 0 100-2.195z"/><path d="M70.17.146H4.83A4.837 4.837 0 000 4.977v53.11a4.837 4.837 0 004.831 4.831h4.13a1.097 1.097 0 100-2.194h-4.13a2.638 2.638 0 01-2.635-2.636v-4.164h39.99v1.892h-.871a2.16 2.16 0 00-2.159 2.159v2.748h-23.52a1.098 1.098 0 000 2.196h10.553v3.936h-3.314a4.014 4.014 0 00-4.01 4.01v2.37c0 1.01.821 1.83 1.83 1.83h33.527c1.008 0 1.83-.82 1.83-1.83v-2.37c0-2.21-1.8-4.01-4.01-4.01h-3.315v-1.387H69.02a2.16 2.16 0 002.158-2.16v-.516a4.838 4.838 0 003.739-4.704L75 4.977a4.835 4.835 0 00-4.83-4.83zM41.352 51.311v-5.262h27.631v5.262H41.352zm3.028-7.457v-2.31h21.574v2.31H44.38zm21.574 9.652v2.31H44.38v-2.31h21.574zm-37.57 9.413h10.772v.39a2.16 2.16 0 002.159 2.159h5.217v1.387H28.384v-3.937zm23.658 6.132c1 0 1.814.814 1.814 1.814v2.005H21.061v-2.005c0-1 .814-1.814 1.814-1.814h29.167zm16.941-5.779H41.352v-5.26h27.631v5.26zm3.739-5.184c0 1.063-.634 1.98-1.543 2.395v-2.509c0-1.19-.97-2.158-2.16-2.158h-.87v-1.892h4.573v4.164zm0-6.359h-1.58c.023-.124.037-5.716.037-5.716 0-1.191-.97-2.16-2.16-2.16h-.87v-2.309h.87c1.19 0 2.16-.968 2.16-2.159v-5.334c0-1.19-.97-2.16-2.16-2.16h-6.2a1.097 1.097 0 100 2.196h6.164v5.262H41.352v-5.262H55.99a1.097 1.097 0 100-2.195H41.315c-1.19 0-2.159.968-2.159 2.159v5.334c0 1.19.968 2.16 2.159 2.16h.87v2.309h-.87c-1.19 0-2.159.968-2.159 2.159 0 0 .014 5.592.036 5.716H2.196V15.077h70.526V51.73zm0-38.847H2.276V4.977a2.638 2.638 0 012.636-2.635h65.174a2.638 2.638 0 012.636 2.635v7.905z"/><path d="M8.095 4.36a3.224 3.224 0 00-3.221 3.22 3.225 3.225 0 003.221 3.222 3.226 3.226 0 003.221-3.222 3.225 3.225 0 00-3.221-3.22zm0 4.246c-.565 0-1.026-.46-1.026-1.026 0-.565.46-1.026 1.026-1.026a1.027 1.027 0 010 2.052zm8.202-4.246a3.225 3.225 0 00-3.222 3.22 3.225 3.225 0 003.222 3.222 3.225 3.225 0 003.22-3.222 3.225 3.225 0 00-3.22-3.22zm0 4.246a1.027 1.027 0 010-2.052 1.027 1.027 0 010 2.052zm8.2-4.246a3.224 3.224 0 00-3.22 3.22 3.225 3.225 0 003.22 3.222A3.226 3.226 0 0027.72 7.58a3.225 3.225 0 00-3.222-3.22zm0 4.246c-.565 0-1.026-.46-1.026-1.026 0-.565.46-1.026 1.026-1.026a1.027 1.027 0 010 2.052z"/></g></symbol><symbol id="icon-detailed" viewBox="0 0 81 81"><g clip-path="url(#clip0)" fill="#1D1D1D"><path d="M40.5 21.08l9.618-8.015H62.71V0H31.355v13.065H40.5v8.014zm-6.532-10.628v-7.84h26.129v7.84H49.172l-6.06 5.05v-5.05h-9.144z"/><path d="M36.58 5.226h2.614v2.613H36.58V5.226zm5.226 0h10.452v2.613H41.806V5.226zm13.064 0h2.614v2.613H54.87V5.226zm11.635 73.161l-1.057-10.576c4.362-.69 7.713-4.467 7.713-9.02V41.805h-5.225V40a4.7 4.7 0 00-2.546-4.188 7.808 7.808 0 002.546-5.765v-2.613c0-4.323-3.516-7.838-7.84-7.838-4.322 0-7.838 3.515-7.838 7.838v2.613c0 3.383 2.157 6.262 5.165 7.36l-7.012 7.011h-7.327c-.146-2.178-1.642-4.076-3.761-4.682l-5.355-1.529v-2.333a7.812 7.812 0 002.613-5.827v-2.613c0-4.323-3.516-7.838-7.84-7.838-4.322 0-7.838 3.515-7.838 7.838v2.613a7.816 7.816 0 002.613 5.827v2.335l-5.355 1.528a5.246 5.246 0 00-3.79 5.025v4.882H9.145v7.839h2.613v20.903H0V81h81v-2.613H66.505zM54.87 57.484v-5.992l9.257-9.257a4.092 4.092 0 001.157-2.506c.011.092.038.178.038.272v16.176c0 2.16-1.76 3.92-3.92 3.92h-10.45v-2.613h3.919zm-3.92 10.451h6.657l1.045 10.452h-7.701V67.935zm9.283 0h2.6l1.045 10.452h-2.6l-1.045-10.452zm7.702-11.758V44.42h2.612v14.37a6.54 6.54 0 01-6.532 6.533H50.952V62.71h10.451a6.54 6.54 0 006.533-6.533zM54.87 30.048v-2.613a5.231 5.231 0 015.226-5.225 5.231 5.231 0 015.226 5.225v2.613a5.231 5.231 0 01-5.226 5.226 5.231 5.231 0 01-5.226-5.226zm-3.378 16.984l8.716-8.716a1.466 1.466 0 012.072 2.072l-9.257 9.257h-13.83a1.307 1.307 0 010-2.613h12.299zM23.516 27.435a5.231 5.231 0 015.226-5.225 5.231 5.231 0 015.226 5.225v2.613a5.231 5.231 0 01-5.226 5.226 5.231 5.231 0 01-5.226-5.226v-2.613zm5.226 10.452c.917 0 1.794-.167 2.613-.457v1.403c-.324.5-1.224 1.667-2.613 1.667s-2.289-1.167-2.613-1.667V37.43a7.8 7.8 0 002.613.457zm-11.758 6.876c0-1.161.78-2.194 1.894-2.513l5.383-1.537c.757.987 2.232 2.4 4.48 2.4 2.25 0 3.724-1.413 4.482-2.401l5.382 1.537c1.001.286 1.7 1.157 1.839 2.169h-1.25a3.924 3.924 0 00-3.92 3.92c0 .46.094.896.24 1.306h-18.53v-4.88zm-5.226 7.495h40.5v2.613h-40.5v-2.613zm2.613 10.452h3.92v-2.613h-3.92v-2.613h33.968v2.613H20.903v2.613H48.34v15.677h-3.112l-2.613-5.226H20.096l-2.613 5.226H14.37V62.71zm27.934 15.677h-21.9l1.306-2.613h19.288l1.306 2.613z"/></g></symbol><symbol id="icon-love-big" viewBox="0 0 195 196"><mask id="a" maskUnits="userSpaceOnUse" x="0" y="0" width="195" height="196"><g clip-path="url(#clip0)" fill="#fff" opacity=".03"><path d="M127.383 7.926L33 28.819c-6.646 1.471-12.512 4.957-16.965 10.08a2.397 2.397 0 003.617 3.144c3.774-4.342 8.748-7.297 14.384-8.544l94.383-20.894c14.391-3.186 28.69 5.93 31.876 20.321l13.704 61.904c3.185 14.391-5.931 28.691-20.322 31.877l-39.892 8.831a3.601 3.601 0 00-2.31 1.67l-24.498 41.158c-.529.888-1.377.857-1.717.802-.34-.054-1.155-.29-1.378-1.3l-6.76-30.536a3.596 3.596 0 00-4.282-2.73l-13.546 2.999c-14.39 3.185-28.69-5.931-31.876-20.322L13.714 65.375a26.58 26.58 0 011.294-15.748 2.397 2.397 0 00-4.445-1.792A31.357 31.357 0 009.035 66.41l13.703 61.904c3.757 16.971 20.621 27.721 37.593 23.965l12.372-2.739 6.5 29.363a6.444 6.444 0 005.296 4.996 6.45 6.45 0 006.597-3.083l24.232-40.712 39.385-8.719c16.972-3.756 27.722-20.62 23.966-37.591L164.975 31.89c-3.757-16.972-20.62-27.722-37.592-23.965z"/><path d="M122.121 48.525c-9.918-6.323-23.132-3.398-29.456 6.52l-3.175 4.982c-.009.013-.035.054-.097.068a.145.145 0 01-.116-.021l-4.902-3.125c-9.919-6.323-23.133-3.397-29.456 6.521-6.323 9.919-3.398 23.133 6.52 29.456l36.841 23.486a4.909 4.909 0 003.728.659 4.921 4.921 0 003.103-2.171l12.906-20.248a2.396 2.396 0 00-4.042-2.576l-12.906 20.248a.146.146 0 01-.096.067.147.147 0 01-.117-.02l-36.84-23.486c-7.69-4.903-9.959-15.148-5.056-22.84 4.902-7.69 15.148-9.957 22.838-5.055l4.902 3.125a4.914 4.914 0 003.728.659 4.915 4.915 0 003.103-2.171l3.175-4.981c4.904-7.69 15.149-9.958 22.839-5.056 7.69 4.903 9.958 15.148 5.056 22.839l-5.439 8.533a2.395 2.395 0 104.041 2.576l5.439-8.533c6.323-9.919 3.398-23.133-6.521-29.456z"/></g></mask><g mask="url(#a)"><rect x="-84" y="-7.949" width="277.776" height="194.958" rx="9.528" fill="#C4C4C4"/></g></symbol><symbol id="icon-love" viewBox="0 0 44 44"><g clip-path="url(#clip0)" fill="#fff"><path d="M34.947.26H9.52c-1.79 0-3.496.56-4.93 1.622a.63.63 0 10.75 1.014A6.974 6.974 0 019.52 1.52h25.427a7.04 7.04 0 017.032 7.031V25.23a7.04 7.04 0 01-7.032 7.031H24.2c-.26 0-.51.109-.688.298l-8.632 9.177a.428.428 0 01-.486.109.427.427 0 01-.28-.412v-8.227a.946.946 0 00-.945-.945h-3.65a7.04 7.04 0 01-7.03-7.031V8.551c0-1.426.424-2.8 1.227-3.97a.63.63 0 00-1.04-.714 8.248 8.248 0 00-1.448 4.684V25.23c0 4.572 3.72 8.292 8.292 8.292h3.333v7.91c0 .704.422 1.326 1.076 1.585a1.696 1.696 0 001.87-.417l8.538-9.078h10.61c4.573 0 8.292-3.72 8.292-8.292V8.55C43.24 3.98 39.52.26 34.948.26z"/><path d="M31.288 10.387a5.618 5.618 0 00-7.936 0l-1.098 1.099c-.003.003-.012.012-.03.012a.038.038 0 01-.028-.012l-1.081-1.081a5.618 5.618 0 00-7.936 0 5.618 5.618 0 000 7.936l8.126 8.126c.246.246.573.381.92.381.348 0 .675-.135.92-.381L27.612 22a.63.63 0 10-.891-.891l-4.466 4.466a.038.038 0 01-.029.012.038.038 0 01-.028-.012L14.07 17.45a4.356 4.356 0 010-6.153 4.356 4.356 0 016.153 0l1.082 1.081c.245.246.572.381.92.381.347 0 .674-.135.92-.38l1.099-1.1a4.356 4.356 0 016.153 0 4.356 4.356 0 010 6.154l-1.882 1.882a.63.63 0 10.891.891l1.882-1.882a5.618 5.618 0 000-7.936z"/></g></symbol><symbol id="icon-plus" viewBox="0 0 9 10"><path fill="#fff" d="M4 .369h1v8.986H4z"/><path fill="#fff" d="M0 5.361v-.998h9v.998z"/></symbol><symbol id="icon-shopping-cart" viewBox="0 0 12 12"><g clip-path="url(#clip0)"><path d="M4.004 9.314c-.575 0-1.045.47-1.045 1.046 0 .575.47 1.046 1.045 1.046.576 0 1.046-.47 1.046-1.046 0-.575-.47-1.046-1.046-1.046zM.867.948v1.046h1.046l1.882 3.974-.732 1.255a1.858 1.858 0 00-.104.523c0 .575.47 1.045 1.045 1.045h6.275V7.746H4.214a.112.112 0 01-.105-.105V7.59l.47-.89h3.87c.418 0 .732-.208.889-.522l1.882-3.399c.105-.104.105-.157.105-.261 0-.314-.21-.523-.523-.523H3.063L2.593.948H.867zm8.366 8.366c-.575 0-1.045.47-1.045 1.046 0 .575.47 1.046 1.045 1.046s1.046-.47 1.046-1.046c0-.575-.47-1.046-1.046-1.046z" fill="#FF834E"/></g></symbol><symbol id="icon-tasks" viewBox="0 0 75 75"><path d="M19.978 8.211h13.06a1.184 1.184 0 100-2.368h-13.06a1.184 1.184 0 100 2.368zm0 5.227h26.12a1.184 1.184 0 100-2.369h-26.12a1.184 1.184 0 100 2.369zm0 16.282h13.06a1.184 1.184 0 100-2.369h-13.06a1.184 1.184 0 100 2.368zm0 5.226H45.81a1.184 1.184 0 100-2.368H19.978a1.184 1.184 0 100 2.368zm0 16.282h13.06a1.184 1.184 0 100-2.369h-13.06a1.184 1.184 0 100 2.369zm25.647 2.858H19.978a1.184 1.184 0 100 2.368h25.647a1.184 1.184 0 100-2.368z" fill="#EF8B54"/><path d="M69.386 59.3l-6.88-2.759v-1.51a8.127 8.127 0 003.933-4.913 4.193 4.193 0 004.166-4.188 4.184 4.184 0 00-1.712-3.375v-3.144c0-5.853-4.762-10.615-10.614-10.615h-.786c-.878 0-1.73.11-2.546.311v-6.414c0-.655-.53-1.184-1.184-1.184h-3.517a1.184 1.184 0 100 2.368h2.333v6.13c-3.108 1.63-5.312 4.755-5.653 8.414H2.368V23.877h43.914a1.184 1.184 0 100-2.368H1.184c-.654 0-1.184.53-1.184 1.184v16.912c0 .654.53 1.184 1.184 1.184H46.88v1.754c-.196.142-.378.3-.546.474H1.184C.53 43.017 0 43.547 0 44.2v16.912c0 .654.53 1.184 1.184 1.184h41.19c-1 1.376-1.75 3.23-1.75 5.629v5.888c0 .654.53 1.186 1.185 1.186h4.474a1.184 1.184 0 100-2.369h-3.29v-4.705c0-4.925 3.876-6.338 4.034-6.393l.054-.02 6.483-2.539c.03.037.06.072.095.106l3.4 3.312c.222.215.518.336.827.336h.018c.315-.005.615-.136.834-.363l3.326-3.45 6.47 2.595.057.02c.165.058 4.04 1.472 4.04 6.396v4.706H50.072a1.184 1.184 0 100 2.368h23.744A1.193 1.193 0 0075 73.804v-5.878c0-5.3-3.651-7.95-5.614-8.626zm-2.64-15.158a1.822 1.822 0 011.49 1.788c0 .891-.643 1.633-1.49 1.789v-3.577zm-17.5-4.731c.001-4.547 3.7-8.246 8.247-8.246h.786c4.547 0 8.246 3.7 8.246 8.246v1.934l-.005-.007a1.086 1.086 0 00-.11-.131l-.035-.034a1.311 1.311 0 00-.05-.045l-.035-.029a1.195 1.195 0 00-.055-.04c-.013-.01-.027-.018-.04-.027a1.134 1.134 0 00-.056-.033c-.016-.01-.033-.018-.05-.026l-.051-.025-.063-.025-.045-.016c-.024-.008-.049-.014-.073-.02l-.033-.01c-2.577-.586-3.383-3.918-3.39-3.947a1.184 1.184 0 00-2.115-.433c-3.116 4.308-9.974 4.35-10.068 4.35h-.005c-.04 0-.081.003-.121.007l-.037.006a1.026 1.026 0 00-.13.025l-.063.016-.057.02c-.017.007-.035.012-.052.02-.022.009-.042.02-.063.03-.013.006-.027.012-.04.02-.022.01-.041.024-.062.036l-.036.022-.055.041-.036.027-.048.043-.036.033-.042.046-.035.038-.035.047-.033.044-.018.03V39.41zm-.184 4.723v3.593a1.821 1.821 0 01-1.544-1.796c0-.91.671-1.663 1.544-1.797zm4.239 12.4l-7.058 2.764c-.393.135-.854.35-1.34.65a1.19 1.19 0 00-.199-.019H2.368V45.385h42.818a4.193 4.193 0 004.152 4.733l.03-.001a8.128 8.128 0 003.933 4.913v1.504zm6.837.827v.138l-2.28 2.366-2.189-2.133v-1.863c.482.09.978.14 1.486.14h1.498c.508 0 1.004-.05 1.485-.14v1.492zm-1.484-3.721h-1.5a5.73 5.73 0 01-5.724-5.725v-4.759c2.067-.178 6.371-.888 9.438-3.728.628 1.239 1.72 2.732 3.51 3.465v5.023a5.73 5.73 0 01-5.724 5.724zM12.098 6.9a1.184 1.184 0 100-2.368H6.125c-.654 0-1.184.53-1.184 1.184v7.849c0 .654.53 1.184 1.184 1.184h8.234c.654 0 1.184-.53 1.184-1.184v-2.118a1.184 1.184 0 10-2.368 0v.934H7.309V6.9h4.789z" fill="#EF8B54"/><path d="M16.674 4.854a1.184 1.184 0 00-1.674.05l-3.934 4.174L9.85 7.753a1.184 1.184 0 10-1.745 1.602l2.077 2.262c.223.242.536.381.865.384h.008c.326 0 .638-.135.861-.372l4.807-5.1a1.184 1.184 0 00-.05-1.675zm-4.576 23.554a1.184 1.184 0 100-2.368H6.125c-.654 0-1.184.53-1.184 1.184v7.849c0 .654.53 1.184 1.184 1.184h8.234c.654 0 1.184-.53 1.184-1.184v-2.118a1.184 1.184 0 10-2.368 0v.934H7.309v-5.48h4.789z" fill="#EF8B54"/><path d="M16.674 26.362a1.184 1.184 0 00-1.674.05l-3.934 4.174L9.85 29.26a1.184 1.184 0 10-1.745 1.602l2.077 2.262c.223.243.536.382.865.384h.008c.326 0 .638-.135.862-.372l4.806-5.1a1.185 1.185 0 00-.05-1.675zM14.359 53.28c-.654 0-1.184.53-1.184 1.184v.933H7.309v-5.48h4.79a1.184 1.184 0 000-2.369H6.124c-.654 0-1.184.53-1.184 1.184v7.85c0 .654.53 1.184 1.184 1.184h8.234c.654 0 1.184-.53 1.184-1.185v-2.117c0-.654-.53-1.184-1.184-1.184z" fill="#EF8B54"/><path d="M15 47.92l-3.934 4.174L9.85 50.77a1.184 1.184 0 10-1.745 1.601l2.077 2.263c.223.242.536.381.865.383h.008c.326 0 .638-.134.862-.372l4.806-5.1A1.185 1.185 0 0015 47.921zM1.184 19.281h52.58c.653 0 1.183-.53 1.183-1.184V1.184C54.947.53 54.417 0 53.763 0h-3.517a1.184 1.184 0 100 2.368h2.333v14.544H2.369V2.368h43.913a1.184 1.184 0 100-2.368H1.184C.53 0 0 .53 0 1.184v16.913c0 .654.53 1.184 1.184 1.184z" fill="#EF8B54"/></symbol><symbol id="icon-team" viewBox="0 0 89 89"><path d="M78.522 41.242c-3.029-1.514-8.707-1.531-8.947-1.531a1.304 1.304 0 000 2.607c1.465 0 5.72.226 7.78 1.257a1.304 1.304 0 101.166-2.332z" fill="#EF8B54"/><path d="M85.021 59.804l-5.384-1.538a.547.547 0 01-.395-.524v-1.797a9.797 9.797 0 001.247-1.022 9.591 9.591 0 002.935-6.939v-2.48l.52-1.04a8.316 8.316 0 00.874-3.7v-6.72c0-.72-.584-1.303-1.303-1.303H70.969c-4.562 0-8.274 3.712-8.274 8.274v.077c0 1.063.252 2.127.727 3.077l.667 1.335v2.13c0 3.374 1.663 6.402 4.182 8.224v1.884c0 .29 0 .41-1.076.718l-2.627.75-7.6-2.763a1.302 1.302 0 00-.356-.998l-2.428-2.551v-4.283c.257-.212.51-.43.755-.659a15.301 15.301 0 004.82-11.123v-3.421a15.068 15.068 0 001.395-6.337v-13.94c0-.72-.584-1.303-1.304-1.303H40.335c-6.868 0-12.456 5.587-12.456 12.455v2.788c0 2.194.47 4.324 1.394 6.337v2.944c0 4.873 2.167 9.264 5.576 12.158v4.384l-2.428 2.551c-.262.275-.383.64-.356.999l-8.021 2.916a6.835 6.835 0 00-1.612.845l-1.26-.63c3.75-1.632 4.938-3.928 4.995-4.042a1.307 1.307 0 000-1.166c-.94-1.88-1.054-5.325-1.145-8.093a70.48 70.48 0 00-.115-2.568c-.444-6.253-5.198-10.969-11.058-10.969-5.86 0-10.614 4.716-11.058 10.97a70.53 70.53 0 00-.114 2.567c-.092 2.768-.206 6.213-1.145 8.093a1.3 1.3 0 000 1.166c.057.114 1.242 2.405 4.999 4.039l-3.499 1.75A5.457 5.457 0 000 66.231v9.632a1.304 1.304 0 002.607 0v-9.632c0-1.097.61-2.084 1.591-2.574l4.357-2.179 1.515 1.44a5.47 5.47 0 003.78 1.51 5.468 5.468 0 003.778-1.51l1.515-1.44 1.42.71a6.865 6.865 0 00-1.048 3.64v10.035a1.304 1.304 0 002.608 0V65.83c0-1.79 1.13-3.404 2.812-4.015l8.457-3.075 3.52 5.28a2.687 2.687 0 002.248 1.202c.713 0 1.395-.28 1.905-.79l2.148-2.148v13.58a1.304 1.304 0 002.607 0v-13.58l2.148 2.148a2.686 2.686 0 002.173.777 2.688 2.688 0 001.98-1.188l3.52-5.281 8.457 3.075a4.285 4.285 0 012.812 4.015v10.034a1.304 1.304 0 002.607 0V65.83c0-1.813-.72-3.513-1.928-4.77l.322-.092a7.15 7.15 0 001.213-.438l3.329 3.329v12.005a1.304 1.304 0 002.607 0V63.86l3.306-3.306c.176.09.36.165.555.22l5.384 1.539a2.89 2.89 0 012.088 2.767v10.785a1.304 1.304 0 002.607 0V65.08a5.51 5.51 0 00-3.979-5.275zM8.364 57.501c-2.439-.877-3.662-2.047-4.184-2.686.356-.93.587-1.996.743-3.122a9.722 9.722 0 003.44 4.246V57.5zm7.468 3.529a2.877 2.877 0 01-3.965 0l-1.213-1.153c.205-.383.317-.818.317-1.273v-1.39a9.696 9.696 0 005.756 0v1.39c0 .456.113.89.317 1.274l-1.212 1.152zm-1.982-5.985a7.068 7.068 0 01-7.06-7.06A1.304 1.304 0 005.272 46.7l.012-.335a69.01 69.01 0 01.108-2.47c.167-2.342 1.103-4.5 2.636-6.078a8.058 8.058 0 015.822-2.468c2.207 0 4.274.876 5.821 2.468 1.533 1.577 2.47 3.736 2.636 6.078.052.726.08 1.573.11 2.47l.007.232c-1.418-2.186-3.609-3.796-6.44-4.706-2.614-.84-4.863-.788-4.958-.785-.342.01-.666.152-.903.398l-2.352 2.44a1.304 1.304 0 101.877 1.81l1.957-2.03c1.686.082 7.109.713 9.218 5.357a7.043 7.043 0 01-6.973 5.964zm5.485 2.46v-1.554a9.643 9.643 0 003.442-4.25c.156 1.122.387 2.186.742 3.114-.52.633-1.748 1.814-4.184 2.69zm12.546-21.15v-3.234c0-.197-.045-.39-.13-.567a12.505 12.505 0 01-1.264-5.479v-2.788c0-5.43 4.418-9.848 9.848-9.848h18.211v12.636c0 1.899-.425 3.742-1.264 5.479-.085.177-.13.37-.13.567v3.712c0 3.53-1.419 6.805-3.996 9.221-.322.301-.656.584-1.001.847l-.022.017c-2.415 1.833-5.372 2.724-8.46 2.524-6.613-.429-11.792-6.177-11.792-13.087zm7.34 26.233a.083.083 0 01-.072.026.083.083 0 01-.067-.04l-4.054-6.082 1.305-1.37 6.15 4.203-3.262 3.263zm5.296-5.031l-7.06-4.826v-2.434a14.678 14.678 0 007.073 1.78 15.1 15.1 0 007.047-1.727v2.38l-7.06 4.827zm5.434 5.017a.083.083 0 01-.066.04c-.043.006-.064-.017-.073-.026l-3.262-3.262 6.15-4.205 1.305 1.371-4.054 6.082zm23.806-1.1l-2.959-2.958c.052-.235.08-.491.08-.774v-.55a9.144 9.144 0 002.882.46c.99 0 1.956-.15 2.875-.435v.525c0 .26.033.515.094.76l-2.972 2.972zm4.916-8.422a7.007 7.007 0 01-5.134 1.99c-3.773-.114-6.842-3.437-6.842-7.408v-2.437c0-.203-.047-.402-.138-.583l-.805-1.611a4.295 4.295 0 01-.451-1.91v-.078a5.673 5.673 0 015.666-5.666H82.21v5.414c0 .875-.207 1.752-.598 2.535l-.659 1.316c-.09.18-.137.38-.137.583v2.788a7.004 7.004 0 01-2.144 5.067z" fill="#EF8B54"/><path d="M82.12 66.196c-.72 0-1.303.584-1.303 1.304v8.364a1.304 1.304 0 002.607 0V67.5c0-.72-.583-1.304-1.303-1.304zM6.88 67.92c-.72 0-1.304.583-1.304 1.303v6.64a1.304 1.304 0 002.607 0v-6.64c0-.72-.583-1.304-1.303-1.304zm48.316-40.373c-4.93-4.93-15.247-3.988-19.454-3.354a2.677 2.677 0 00-2.287 2.667v3.003a1.304 1.304 0 002.607 0V26.86c0-.045.03-.083.069-.089 1.68-.253 5.014-.644 8.47-.413 4.065.27 7.01 1.29 8.751 3.033a1.304 1.304 0 101.844-1.844zM29.183 68.984c-.72 0-1.304.584-1.304 1.304v5.576a1.304 1.304 0 002.608 0v-5.576c0-.72-.584-1.304-1.304-1.304zm30.667 0c-.72 0-1.304.584-1.304 1.304v5.576a1.304 1.304 0 002.608 0v-5.576c0-.72-.584-1.304-1.304-1.304z" fill="#EF8B54"/></symbol><symbol id="logo-header" viewBox="0 0 230 33"><g class="title" fill="#fff"><path d="M83.304 15.737l1.895 5.968 1.895-5.968h1.28l-2.565 7.808h-1.225l-1.895-5.908-1.895 5.908h-1.23l-2.565-7.808h1.285l1.895 5.968 1.895-5.968h1.23zm11.094 6.692h4.405v1.116h-5.63v-7.808h5.521v1.116h-4.296v2.064h3.403v1.116h-3.403v2.396zm12.771 1.116h-3.343v-7.808H107c.632 0 1.171.209 1.617.626.447.418.67.897.67 1.438 0 .312-.065.599-.196.86-.127.261-.254.443-.381.545l-.202.158a2.737 2.737 0 01.409.3c.138.112.256.237.354.375.101.138.194.317.277.539a1.8 1.8 0 01.131.68c0 .625-.239 1.162-.719 1.612-.479.45-1.076.675-1.791.675zm-2.118-1.061h2.118a1.253 1.253 0 001.285-1.28c0-.363-.123-.668-.37-.915a1.232 1.232 0 00-.915-.37h-2.118v2.565zM107 16.799h-1.949v2.118H107c.305 0 .557-.1.757-.3.203-.203.305-.455.305-.756 0-.305-.102-.558-.305-.757a1.017 1.017 0 00-.757-.305zm12.49 6.746l3.234-7.808h1.226l3.234 7.808h-1.28l-.838-2.063h-3.458l-.838 2.063h-1.28zm3.85-6.414l-1.285 3.235h2.564l-1.279-3.235zm13.549 6.414h-5.015v-7.808h1.225v6.692h3.79v1.116zm3.231-7.808h5.908v1.116h-2.341v6.692h-1.225v-6.692h-2.342v-1.116zm11.824 6.692h4.405v1.116h-5.63v-7.808h5.521v1.116h-4.296v2.064h3.403v1.116h-3.403v2.396zm9.427 1.116v-7.808h3.289c.723 0 1.322.23 1.797.692.476.46.713 1.03.713 1.71 0 .319-.054.618-.163.898-.109.276-.24.494-.392.653-.152.16-.305.3-.457.42-.153.12-.284.201-.392.245l-.158.07 1.786 3.12h-1.34l-1.671-3.01h-1.786v3.01h-1.226zm4.199-4.492c.246-.247.37-.552.37-.915 0-.366-.124-.671-.37-.914a1.227 1.227 0 00-.91-.37h-2.063v2.564h2.063c.363 0 .666-.122.91-.365zm12.362-3.316h1.225v7.808h-1.056l-4.351-5.63v5.63h-1.225v-7.808h1.056l4.351 5.636v-5.636zm5.91 7.808l3.234-7.808h1.226l3.234 7.808h-1.28l-.838-2.063h-3.458l-.838 2.063h-1.28zm3.85-6.414l-1.285 3.235h2.564l-1.279-3.235zm6.966-1.394h5.908v1.116h-2.341v6.692H197v-6.692h-2.342v-1.116zm10.599 7.808v-7.808h1.225v7.808h-1.225zm9.084 0l-3.071-7.808h1.285l2.396 6.246 2.401-6.246h1.28l-3.066 7.808h-1.225zm10.31-1.116h4.405v1.116h-5.63v-7.808h5.521v1.116h-4.296v2.064h3.403v1.116h-3.403v2.396z"/><path d="M83.304 15.737l.067-.02-.016-.05h-.05v.07zm1.895 5.968l-.066.021.066.21.067-.21-.067-.021zm1.895-5.968v-.07h-.051l-.015.05.066.02zm1.28 0l.066.022.03-.091h-.096v.07zm-2.565 7.808v.07h.05l.016-.048-.066-.022zm-1.225 0l-.067.022.016.048h.05v-.07zm-1.895-5.908l.066-.02-.066-.208-.066.207.066.021zm-1.895 5.908v.07h.05l.016-.048-.066-.022zm-1.23 0l-.067.022.016.048h.05v-.07zm-2.565-7.808v-.07h-.096l.03.092.066-.022zm1.285 0l.066-.02-.015-.05h-.051v.07zm1.895 5.968l-.067.021.067.21.066-.21-.066-.021zm1.895-5.968v-.07h-.051l-.016.05.067.02zm1.164.021l1.895 5.968.133-.042-1.895-5.968-.133.042zm2.028 5.968l1.894-5.968-.132-.042-1.895 5.968.133.042zm1.828-5.92h1.28v-.138h-1.28v.139zm1.213-.09l-2.564 7.808.132.043 2.565-7.808-.133-.044zm-2.498 7.76h-1.225v.14h1.225v-.14zm-1.159.048l-1.895-5.908-.132.043 1.894 5.908.133-.043zm-2.027-5.908l-1.895 5.908.132.043 1.895-5.908-.132-.043zm-1.829 5.86h-1.23v.14h1.23v-.14zm-1.164.048l-2.565-7.809-.132.044 2.564 7.808.133-.043zm-2.631-7.717h1.285v-.14h-1.285v.14zm1.218-.049l1.895 5.968.133-.042-1.895-5.968-.133.042zm2.028 5.968l1.895-5.968-.133-.042-1.895 5.968.133.042zm1.829-5.92h1.23v-.138h-1.23v.139zm12.324 6.623h-.07v.07h.07v-.07zm4.405 0h.07v-.07h-.07v.07zm0 1.116v.07h.07v-.07h-.07zm-5.63 0h-.07v.07h.07v-.07zm0-7.808v-.07h-.07v.07h.07zm5.521 0h.07v-.07h-.07v.07zm0 1.116v.07h.07v-.07h-.07zm-4.296 0v-.07h-.07v.07h.07zm0 2.064h-.07v.07h.07v-.07zm3.403 0h.07v-.07h-.07v.07zm0 1.116v.07h.07v-.07h-.07zm-3.403 0v-.07h-.07v.07h.07zm0 2.466h4.405v-.14h-4.405v.14zm4.335-.07v1.116h.14V22.43h-.14zm.07 1.047h-5.63v.14h5.63v-.14zm-5.56.07v-7.809h-.14v7.808h.14zm-.07-7.74h5.521v-.138h-5.521v.139zm5.451-.069v1.116h.14v-1.116h-.14zm.07 1.047h-4.296v.14h4.296v-.14zm-4.366.07v2.063h.14v-2.064h-.14zm.07 2.133h3.403v-.14h-3.403v.14zm3.334-.07v1.116h.139v-1.116h-.14zm.07 1.047h-3.404v.139h3.403v-.14zm-3.474.07v2.395h.14v-2.396h-.14zm9.498 3.511h-.07v.07h.07v-.07zm0-7.808v-.07h-.07v.07h.07zm5.265 2.924l-.062-.031h-.001l.063.031zm-.381.545l.043.055-.043-.055zm-.202.158l-.043-.055-.086.068.098.049.031-.062zm.12.076l-.04.057.004.003.036-.06zm.289.223l-.045.053.001.001.044-.054zm.354.376l-.057.04.001.001.056-.041zm.277.539l-.065.024.001.002.064-.026zm-4.497 1.906h-.07v.07h.07v-.07zm3.033-.365l.049.05-.049-.05zm0-1.83l-.05.05.05-.05zm-3.033-.37v-.07h-.07v.07h.07zm0-3.12v-.07h-.07v.07h.07zm0 2.118h-.07v.07h.07v-.07zm2.706-1.813l-.05.049h.001l.049-.05zm-.588 6.372h-3.343v.14h3.343v-.14zm-3.274.07v-7.809h-.139v7.808h.139zm-.069-7.74H107v-.138h-3.174v.139zm3.174 0c.615 0 1.137.203 1.57.608l.095-.102a2.353 2.353 0 00-1.665-.645v.14zm1.57.608c.434.406.647.868.647 1.387h.14c0-.563-.234-1.06-.692-1.489l-.095.102zm.647 1.387c0 .302-.063.578-.188.829l.124.062c.136-.271.204-.569.204-.891h-.14zm-.189.83c-.125.258-.247.428-.362.52l.087.11c.14-.112.272-.305.401-.57l-.126-.06zm-.361.52l-.202.158.086.11.202-.159-.086-.11zm-.19.275a.931.931 0 01.111.07l.081-.113a1.07 1.07 0 00-.129-.082l-.063.125zm.115.074c.049.029.141.1.28.216l.09-.106a2.884 2.884 0 00-.298-.23l-.072.12zm.281.217c.133.109.247.23.341.362l.114-.08a2.01 2.01 0 00-.367-.39l-.088.108zm.342.363c.096.131.186.305.268.522l.131-.049a2.34 2.34 0 00-.287-.556l-.112.083zm.269.524c.084.21.125.427.125.655h.14c0-.245-.045-.481-.136-.707l-.129.052zm.125.655c0 .604-.23 1.123-.696 1.56l.095.102c.492-.462.741-1.018.741-1.662h-.14zm-.696 1.56c-.465.437-1.045.657-1.744.657v.14c.731 0 1.346-.232 1.839-.695l-.095-.102zm-3.862-.266h2.118v-.14h-2.118v.14zm2.118 0c.38 0 .703-.128.964-.385l-.098-.099c-.233.23-.52.345-.866.345v.14zm.964-.385c.26-.26.391-.583.391-.964h-.14c0 .345-.116.632-.35.866l.099.098zm.391-.964c0-.38-.131-.704-.391-.964l-.099.099c.234.233.35.52.35.865h.14zm-.391-.964a1.3 1.3 0 00-.964-.39v.139c.349 0 .636.116.865.35l.099-.099zm-.964-.39h-2.118v.139h2.118v-.14zm-2.188.069v2.565h.139v-2.565h-.139zm2.019-3.19h-1.949v.14H107v-.14zm-2.019.07v2.118h.139V16.8h-.139zm.07 2.188H107v-.14h-1.949v.14zm1.949 0c.322 0 .592-.106.806-.32l-.098-.099a.958.958 0 01-.708.28v.139zm.806-.32c.217-.217.326-.488.326-.806h-.14a.96.96 0 01-.284.707l.098.099zm.326-.806a1.09 1.09 0 00-.326-.807l-.098.1c.189.185.284.42.284.707h.14zm-.325-.806a1.087 1.087 0 00-.807-.326v.14c.288 0 .522.095.707.284l.1-.098zm11.683 6.49l-.064-.026-.04.096h.104v-.07zm3.234-7.808v-.07h-.046l-.018.043.064.027zm1.226 0l.064-.027-.018-.043h-.046v.07zm3.234 7.808v.07h.104l-.04-.096-.064.026zm-1.28 0l-.064.027.017.043h.047v-.07zm-.838-2.063l.064-.026-.017-.044h-.047v.07zm-3.458 0v-.07h-.047l-.017.044.064.026zm-.838 2.063v.07h.047l.017-.043-.064-.027zm2.57-6.414l.065-.026-.065-.163-.065.163.065.026zm-1.285 3.235l-.065-.026-.038.095h.103v-.07zm2.564 0v.07h.103l-.038-.096-.065.026zm-5.065 3.206l3.235-7.808-.129-.053-3.234 7.808.128.053zm3.17-7.765h1.226v-.14h-1.226v.14zm1.161-.043l3.235 7.808.128-.053-3.234-7.808-.129.053zm3.299 7.712h-1.28v.14h1.28v-.14zm-1.215.043l-.839-2.063-.129.052.839 2.064.129-.053zm-.903-2.107h-3.458v.14h3.458v-.14zm-3.522.044l-.839 2.063.129.053.839-2.064-.129-.052zm-.774 2.02h-1.28v.14h1.28v-.14zm2.505-6.37l-1.285 3.234.129.051 1.285-3.234-.129-.052zm-1.22 3.33h2.564v-.14h-2.564v.14zm2.629-.096l-1.279-3.235-.13.052 1.279 3.234.13-.051zm12.205 3.205v.07h.07v-.07h-.07zm-5.015 0h-.069v.07h.069v-.07zm0-7.808v-.07h-.069v.07h.069zm1.225 0h.07v-.07h-.07v.07zm0 6.692h-.069v.07h.069v-.07zm3.79 0h.07v-.07h-.07v.07zm0 1.047h-5.015v.14h5.015v-.14zm-4.945.07v-7.809h-.139v7.808h.139zm-.07-7.74h1.225v-.138h-1.225v.139zm1.156-.069v6.692h.139v-6.692h-.139zm.069 6.762h3.79v-.14h-3.79v.14zm3.721-.07v1.116h.139V22.43h-.139zm3.3-6.692v-.07h-.069v.07h.069zm5.908 0h.07v-.07h-.07v.07zm0 1.116v.07h.07v-.07h-.07zm-2.341 0v-.07h-.07v.07h.07zm0 6.692v.07h.07v-.07h-.07zm-1.225 0h-.07v.07h.07v-.07zm0-6.692h.069v-.07h-.069v.07zm-2.342 0h-.069v.07h.069v-.07zm0-1.046h5.908v-.14h-5.908v.14zm5.839-.07v1.116h.139v-1.116h-.139zm.069 1.047h-2.341v.14h2.341v-.14zm-2.411.07v6.691h.14v-6.692h-.14zm.07 6.622h-1.225v.14h1.225v-.14zm-1.156.07v-6.693h-.139v6.692h.139zm-.069-6.762h-2.342v.14h2.342v-.14zm-2.272.07v-1.117h-.139v1.116h.139zm11.754 5.575h-.07v.07h.07v-.07zm4.405 0h.07v-.07h-.07v.07zm0 1.116v.07h.07v-.07h-.07zm-5.63 0h-.07v.07h.07v-.07zm0-7.808v-.07h-.07v.07h.07zm5.521 0h.07v-.07h-.07v.07zm0 1.116v.07h.07v-.07h-.07zm-4.296 0v-.07h-.07v.07h.07zm0 2.064h-.07v.07h.07v-.07zm3.403 0h.07v-.07h-.07v.07zm0 1.116v.07h.07v-.07h-.07zm-3.403 0v-.07h-.07v.07h.07zm0 2.466h4.405v-.14h-4.405v.14zm4.335-.07v1.116h.14V22.43h-.14zm.07 1.047h-5.63v.14h5.63v-.14zm-5.561.07v-7.809h-.139v7.808h.139zm-.069-7.74h5.521v-.138h-5.521v.139zm5.451-.069v1.116h.14v-1.116h-.14zm.07 1.047h-4.296v.14h4.296v-.14zm-4.366.07v2.063h.139v-2.064h-.139zm.07 2.133h3.403v-.14h-3.403v.14zm3.333-.07v1.116h.14v-1.116h-.14zm.07 1.047h-3.403v.139h3.403v-.14zm-3.473.07v2.395h.139v-2.396h-.139zm9.497 3.511h-.069v.07h.069v-.07zm0-7.808v-.07h-.069v.07h.069zm5.636 3.3l.065.026-.065-.026zm-1.241 1.318l-.026-.065-.003.001.029.064zm-.158.07l-.029-.063-.07.031.038.067.061-.035zm1.786 3.12v.07h.12l-.06-.104-.06.034zm-1.34 0l-.061.034.02.036h.041v-.07zm-1.671-3.01l.06-.035-.019-.035h-.041v.07zm-1.786 0v-.07h-.07v.07h.07zm0 3.01v.07h.069v-.07h-.069zm2.973-6.321l-.05.049h.001l.049-.05zm-2.973-.37v-.07h-.07v.07h.07zm0 2.564h-.07v.07h.07v-.07zm-1.156 4.127v-7.808h-.139v7.808h.139zm-.07-7.738h3.289v-.14h-3.289v.14zm3.289 0c.706 0 1.287.225 1.749.672l.097-.1c-.49-.475-1.107-.712-1.846-.712v.14zm1.749.672c.461.447.692.999.692 1.66h.139c0-.698-.245-1.286-.734-1.76l-.097.1zm.692 1.66c0 .31-.053.602-.159.873l.13.05c.112-.288.168-.596.168-.924h-.139zm-.159.872c-.106.27-.233.48-.377.631l.1.096c.161-.168.296-.394.407-.675l-.13-.052zm-.377.631a4.405 4.405 0 01-.45.413l.086.11c.155-.123.31-.265.464-.427l-.1-.096zm-.45.413a1.648 1.648 0 01-.375.235l.051.13a1.79 1.79 0 00.41-.256l-.086-.11zm-.378.236l-.158.07.057.128.158-.07-.057-.128zm-.19.169l1.786 3.12.121-.07-1.786-3.12-.121.07zm1.847 3.016h-1.34v.14h1.34v-.14zm-1.279.036l-1.672-3.012-.121.068 1.671 3.011.122-.067zm-1.732-3.047h-1.786v.139h1.786v-.14zm-1.856.07v3.01h.139v-3.01h-.139zm.07 2.94h-1.226v.14h1.226v-.14zm3.022-4.373c.26-.26.39-.583.39-.964h-.139c0 .346-.117.633-.35.866l.099.098zm.39-.964a1.3 1.3 0 00-.391-.964l-.097.1c.232.229.349.515.349.864h.139zm-.39-.963a1.294 1.294 0 00-.959-.391v.14c.346 0 .63.116.86.349l.099-.098zm-.959-.391h-2.063v.14h2.063v-.14zm-2.133.07v2.564h.139v-2.565h-.139zm.07 2.634h2.063v-.14h-2.063v.14zm2.063 0a1.3 1.3 0 00.959-.386l-.099-.098a1.16 1.16 0 01-.86.344v.14zm13.272-3.75v-.07h-.07v.07h.07zm1.225 0h.07v-.07h-.07v.07zm0 7.807v.07h.07v-.07h-.07zm-1.056 0l-.055.043.021.027h.034v-.07zm-4.351-5.63l.055-.042-.124-.162v.204h.069zm0 5.63v.07h.07v-.07h-.07zm-1.225 0h-.07v.07h.07v-.07zm0-7.808v-.07h-.07v.07h.07zm1.056 0l.056-.042-.021-.027h-.035v.07zm4.351 5.636l-.055.042.125.162v-.204h-.07zm0-5.566h1.225v-.14h-1.225v.14zm1.155-.07v7.808h.14v-7.808h-.14zm.07 7.739h-1.056v.14h1.056v-.14zm-1.001.027l-4.351-5.63-.11.085 4.351 5.63.11-.085zm-4.475-5.588v5.63h.139v-5.63h-.139zm.069 5.56h-1.225v.14h1.225v-.14zm-1.155.07v-7.808h-.14v7.808h.14zm-.07-7.738h1.056v-.14h-1.056v.14zm1.001-.027l4.351 5.635.11-.085-4.35-5.635-.111.085zm4.476 5.593v-5.636h-.14v5.636h.14zm5.84 2.172l-.064-.026-.04.096h.104v-.07zm3.234-7.808v-.07h-.046l-.018.043.064.027zm1.226 0l.064-.027-.018-.043h-.046v.07zm3.234 7.808v.07h.104l-.04-.096-.064.026zm-1.28 0l-.064.027.018.043h.046v-.07zm-.838-2.063l.064-.026-.017-.044h-.047v.07zm-3.458 0v-.07h-.047l-.017.044.064.026zm-.838 2.063v.07h.047l.017-.043-.064-.027zm2.57-6.414l.065-.026-.065-.163-.065.163.065.026zm-1.285 3.235l-.065-.026-.038.095h.103v-.07zm2.564 0v.07h.103l-.038-.096-.065.026zm-5.064 3.206l3.234-7.808-.129-.053-3.234 7.808.129.053zm3.169-7.765h1.226v-.14h-1.226v.14zm1.161-.043l3.235 7.808.128-.053-3.234-7.808-.129.053zm3.299 7.712h-1.28v.14h1.28v-.14zm-1.215.043l-.839-2.063-.129.052.839 2.064.129-.053zm-.903-2.107h-3.458v.14h3.458v-.14zm-3.522.044l-.839 2.063.129.053.839-2.064-.129-.052zm-.774 2.02h-1.28v.14h1.28v-.14zm2.505-6.37l-1.285 3.234.13.051 1.285-3.234-.13-.052zm-1.22 3.33h2.564v-.14h-2.564v.14zm2.629-.096l-1.279-3.235-.13.052 1.28 3.234.129-.051zm5.622-4.603v-.07h-.069v.07h.069zm5.908 0h.07v-.07h-.07v.07zm0 1.116v.07h.07v-.07h-.07zm-2.341 0v-.07h-.07v.07h.07zm0 6.692v.07h.069v-.07h-.069zm-1.225 0h-.07v.07h.07v-.07zm0-6.692h.069v-.07H197v.07zm-2.342 0h-.069v.07h.069v-.07zm0-1.046h5.908v-.14h-5.908v.14zm5.838-.07v1.116h.14v-1.116h-.14zm.07 1.047h-2.341v.14h2.341v-.14zm-2.411.07v6.691h.139v-6.692h-.139zm.07 6.622H197v.14h1.225v-.14zm-1.156.07v-6.693h-.139v6.692h.139zM197 16.783h-2.342v.14H197v-.14zm-2.272.07v-1.117h-.139v1.116h.139zm10.529 6.691h-.07v.07h.07v-.07zm0-7.808v-.07h-.07v.07h.07zm1.225 0h.069v-.07h-.069v.07zm0 7.808v.07h.069v-.07h-.069zm-1.156 0v-7.808h-.139v7.808h.139zm-.069-7.738h1.225v-.14h-1.225v.14zm1.155-.07v7.808h.139v-7.808h-.139zm.07 7.739h-1.225v.14h1.225v-.14zm7.859.07l-.065.025.018.044h.047v-.07zm-3.071-7.809v-.07h-.102l.037.096.065-.026zm1.285 0l.065-.025-.017-.044h-.048v.07zm2.396 6.246l-.065.025.065.17.065-.17-.065-.025zm2.401-6.246v-.07h-.048l-.017.045.065.025zm1.28 0l.065.026.037-.095h-.102v.07zm-3.066 7.808v.07h.048l.017-.044-.065-.026zm-1.16-.025l-3.071-7.808-.13.05 3.071 7.809.13-.051zm-3.136-7.713h1.285v-.14h-1.285v.14zm1.22-.045l2.396 6.246.13-.05-2.396-6.246-.13.05zm2.526 6.246l2.401-6.246-.13-.05-2.401 6.246.13.05zm2.336-6.201h1.28v-.14h-1.28v.14zm1.215-.095l-3.066 7.808.13.05 3.066-7.807-.13-.051zm-3.001 7.764h-1.225v.14h1.225v-.14zm9.085-1.047h-.07v.07h.07v-.07zm4.405 0h.07v-.07h-.07v.07zm0 1.116v.07h.07v-.07h-.07zm-5.63 0h-.07v.07h.07v-.07zm0-7.808v-.07h-.07v.07h.07zm5.521 0h.07v-.07h-.07v.07zm0 1.116v.07h.07v-.07h-.07zm-4.296 0v-.07h-.07v.07h.07zm0 2.064h-.07v.07h.07v-.07zm3.403 0h.07v-.07h-.07v.07zm0 1.116v.07h.07v-.07h-.07zm-3.403 0v-.07h-.07v.07h.07zm0 2.466h4.405v-.14h-4.405v.14zm4.335-.07v1.116h.14V22.43h-.14zm.07 1.047h-5.63v.14h5.63v-.14zm-5.561.07v-7.809h-.139v7.808h.139zm-.069-7.74h5.521v-.138h-5.521v.139zm5.451-.069v1.116h.14v-1.116h-.14zm.07 1.047h-4.296v.14h4.296v-.14zm-4.366.07v2.063h.139v-2.064h-.139zm.07 2.133h3.403v-.14h-3.403v.14zm3.333-.07v1.116h.14v-1.116h-.14zm.07 1.047h-3.403v.139h3.403v-.14zm-3.473.07v2.395h.139v-2.396h-.139z"/></g><path class="figure" d="M20.387 32.807h6.976l3.944-4.009 3.942 4.009h6.95L31.293 21.719 20.387 32.807zM0 8.916l11.752 23.068 7.114-6.882L10.36 11.63 0 8.916zm62.727-.004L50.975 31.98l-7.113-6.88 8.504-13.473 10.361-2.714zM31.297 0L19.572 16.082l3.13 5.272 8.595-8.474 8.595 8.474 3.13-5.272L31.297 0z" fill="#fff"/></symbol><symbol id="preparation" viewBox="0 0 75 75"><path d="M19.978 8.211h13.06a1.184 1.184 0 100-2.368h-13.06a1.184 1.184 0 100 2.368zm0 5.227h26.12a1.184 1.184 0 100-2.369h-26.12a1.184 1.184 0 100 2.369zm0 16.282h13.06a1.184 1.184 0 100-2.369h-13.06a1.184 1.184 0 100 2.368zm0 5.226H45.81a1.184 1.184 0 100-2.368H19.978a1.184 1.184 0 100 2.368zm0 16.282h13.06a1.184 1.184 0 100-2.369h-13.06a1.184 1.184 0 100 2.369zm25.647 2.858H19.978a1.184 1.184 0 100 2.368h25.647a1.184 1.184 0 100-2.368z" fill="#EF8B54"/><path d="M69.386 59.3l-6.88-2.759v-1.51a8.127 8.127 0 003.933-4.913 4.193 4.193 0 004.166-4.188 4.184 4.184 0 00-1.712-3.375v-3.144c0-5.853-4.762-10.615-10.614-10.615h-.786c-.878 0-1.73.11-2.546.311v-6.414c0-.655-.53-1.184-1.184-1.184h-3.517a1.184 1.184 0 100 2.368h2.333v6.13c-3.108 1.63-5.312 4.755-5.653 8.414H2.368V23.877h43.914a1.184 1.184 0 100-2.368H1.184c-.654 0-1.184.53-1.184 1.184v16.912c0 .654.53 1.184 1.184 1.184H46.88v1.754c-.196.142-.378.3-.546.474H1.184C.53 43.017 0 43.547 0 44.2v16.912c0 .654.53 1.184 1.184 1.184h41.19c-1 1.376-1.75 3.23-1.75 5.629v5.888c0 .654.53 1.186 1.185 1.186h4.474a1.184 1.184 0 100-2.369h-3.29v-4.705c0-4.925 3.876-6.338 4.034-6.393l.054-.02 6.483-2.539c.03.037.06.072.095.106l3.4 3.312c.222.215.518.336.827.336h.018c.315-.005.615-.136.834-.363l3.326-3.45 6.47 2.595.057.02c.165.058 4.04 1.472 4.04 6.396v4.706H50.072a1.184 1.184 0 100 2.368h23.744A1.193 1.193 0 0075 73.804v-5.878c0-5.3-3.651-7.95-5.614-8.626zm-2.64-15.158a1.822 1.822 0 011.49 1.788c0 .891-.643 1.633-1.49 1.789v-3.577zm-17.5-4.731c.001-4.547 3.7-8.246 8.247-8.246h.786c4.547 0 8.246 3.7 8.246 8.246v1.934l-.005-.007a1.086 1.086 0 00-.11-.131l-.035-.034a1.311 1.311 0 00-.05-.045l-.035-.029a1.195 1.195 0 00-.055-.04c-.013-.01-.027-.018-.04-.027a1.134 1.134 0 00-.056-.033c-.016-.01-.033-.018-.05-.026l-.051-.025-.063-.025-.045-.016c-.024-.008-.049-.014-.073-.02l-.033-.01c-2.577-.586-3.383-3.918-3.39-3.947a1.184 1.184 0 00-2.115-.433c-3.116 4.308-9.974 4.35-10.068 4.35h-.005c-.04 0-.081.003-.121.007l-.037.006a1.026 1.026 0 00-.13.025l-.063.016-.057.02c-.017.007-.035.012-.052.02-.022.009-.042.02-.063.03-.013.006-.027.012-.04.02-.022.01-.041.024-.062.036l-.036.022-.055.041-.036.027-.048.043-.036.033-.042.046-.035.038-.035.047-.033.044-.018.03V39.41zm-.184 4.723v3.593a1.821 1.821 0 01-1.544-1.796c0-.91.671-1.663 1.544-1.797zm4.239 12.4l-7.058 2.764c-.393.135-.854.35-1.34.65a1.19 1.19 0 00-.199-.019H2.368V45.385h42.818a4.193 4.193 0 004.152 4.733l.03-.001a8.128 8.128 0 003.933 4.913v1.504zm6.837.827v.138l-2.28 2.366-2.189-2.133v-1.863c.482.09.978.14 1.486.14h1.498c.508 0 1.004-.05 1.485-.14v1.492zm-1.484-3.721h-1.5a5.73 5.73 0 01-5.724-5.725v-4.759c2.067-.178 6.371-.888 9.438-3.728.628 1.239 1.72 2.732 3.51 3.465v5.023a5.73 5.73 0 01-5.724 5.724zM12.098 6.9a1.184 1.184 0 100-2.368H6.125c-.654 0-1.184.53-1.184 1.184v7.849c0 .654.53 1.184 1.184 1.184h8.234c.654 0 1.184-.53 1.184-1.184v-2.118a1.184 1.184 0 10-2.368 0v.934H7.309V6.9h4.789z" fill="#EF8B54"/><path d="M16.674 4.854a1.184 1.184 0 00-1.674.05l-3.934 4.174L9.85 7.753a1.184 1.184 0 10-1.745 1.602l2.077 2.262c.223.242.536.381.865.384h.008c.326 0 .638-.135.861-.372l4.807-5.1a1.184 1.184 0 00-.05-1.675zm-4.576 23.554a1.184 1.184 0 100-2.368H6.125c-.654 0-1.184.53-1.184 1.184v7.849c0 .654.53 1.184 1.184 1.184h8.234c.654 0 1.184-.53 1.184-1.184v-2.118a1.184 1.184 0 10-2.368 0v.934H7.309v-5.48h4.789z" fill="#EF8B54"/><path d="M16.674 26.362a1.184 1.184 0 00-1.674.05l-3.934 4.174L9.85 29.26a1.184 1.184 0 10-1.745 1.602l2.077 2.262c.223.243.536.382.865.384h.008c.326 0 .638-.135.862-.372l4.806-5.1a1.185 1.185 0 00-.05-1.675zM14.359 53.28c-.654 0-1.184.53-1.184 1.184v.933H7.309v-5.48h4.79a1.184 1.184 0 000-2.369H6.124c-.654 0-1.184.53-1.184 1.184v7.85c0 .654.53 1.184 1.184 1.184h8.234c.654 0 1.184-.53 1.184-1.185v-2.117c0-.654-.53-1.184-1.184-1.184z" fill="#EF8B54"/><path d="M15 47.92l-3.934 4.174L9.85 50.77a1.184 1.184 0 10-1.745 1.601l2.077 2.263c.223.242.536.381.865.383h.008c.326 0 .638-.134.862-.372l4.806-5.1A1.185 1.185 0 0015 47.921zM1.184 19.281h52.58c.653 0 1.183-.53 1.183-1.184V1.184C54.947.53 54.417 0 53.763 0h-3.517a1.184 1.184 0 100 2.368h2.333v14.544H2.369V2.368h43.913a1.184 1.184 0 100-2.368H1.184C.53 0 0 .53 0 1.184v16.913c0 .654.53 1.184 1.184 1.184z" fill="#EF8B54"/></symbol><symbol id="process" viewBox="0 0 1400 509"><g opacity=".1"><path d="M187 133h1187c11.05 0 20 8.954 20 20v314c0 11.046-8.95 20-20 20H187" stroke="#fff" stroke-width="11" stroke-linecap="square" stroke-linejoin="round" stroke-dasharray="4 30"/><circle cx="161.5" cy="486.5" r="17.5" stroke="#fff" stroke-width="10"/><mask id="a" maskUnits="userSpaceOnUse" x="0" y="0" width="171" height="171"><path transform="rotate(-158.188 121.837 170.598)" fill="url(#pattern0)" d="M121.837 170.598h131.232V301.83H121.837z"/></mask><g mask="url(#a)"><path fill="#BEBBBE" d="M122.353 170.726L.039 121.774 49.213-1.096l122.314 48.952z"/></g><path d="M47.987 91.014a11.215 11.215 0 01-2.563-1.722c-.748-.69-1.288-1.372-1.622-2.043l1.958-1.622c.328.626.789 1.226 1.383 1.8a7.638 7.638 0 001.948 1.377c.785.385 1.42.555 1.907.512.493-.055.834-.276 1.023-.662a.954.954 0 00.002-.867c-.121-.3-.33-.592-.627-.879a17.82 17.82 0 00-1.215-1.06c-.804-.663-1.443-1.244-1.917-1.745a4.117 4.117 0 01-.992-1.776c-.175-.679-.067-1.416.323-2.212a3.657 3.657 0 011.483-1.6c.654-.386 1.437-.559 2.35-.52.923.043 1.93.332 3.023.868.762.373 1.462.83 2.1 1.368.64.539 1.148 1.113 1.527 1.722l-1.882 1.68c-.796-1.167-1.746-2.02-2.85-2.56-.773-.38-1.409-.536-1.907-.47-.486.072-.83.312-1.03.722-.201.41-.141.82.18 1.23.337.406.896.92 1.677 1.542.804.662 1.443 1.244 1.917 1.744s.801 1.084.982 1.751c.193.673.094 1.407-.297 2.203a3.638 3.638 0 01-1.5 1.593c-.648.373-1.434.538-2.358.494-.924-.044-1.931-.333-3.023-.868zM62.1 85.659l-3.822-1.873 1.104-2.252 10.407 5.1-1.104 2.253-3.821-1.873-4.75 9.69-2.764-1.355 4.75-9.69zm11.842 14.649l-5.545-2.718-2.312 2.041-2.832-1.388L74.43 88.91l2.73 1.338-.514 14.56-2.9-1.422.196-3.078zm.158-2.525l.348-5.5-4.135 3.644 3.787 1.856zm11.394 11.362l-.673-4.456-.136-.067-2.406-1.179-1.63 3.327-2.764-1.355 5.853-11.943 5.17 2.534c1.058.519 1.887 1.144 2.487 1.876.612.737.97 1.533 1.073 2.387.103.855-.063 1.726-.498 2.613s-1.027 1.549-1.777 1.985c-.733.431-1.576.625-2.528.581l.797 5.152-2.968-1.455zm3.678-7.634c.33-.671.364-1.289.105-1.854-.254-.575-.796-1.067-1.627-1.474l-2.252-1.104-2.04 4.163 2.252 1.104c.83.407 1.55.534 2.161.382.61-.152 1.078-.558 1.401-1.217zm8.315 1.494l-3.821-1.873 1.104-2.252 10.407 5.101-1.104 2.252-3.822-1.873-4.75 9.69-2.764-1.355 4.75-9.69z" fill="#171718"/></g></symbol><symbol id="square" viewBox="0 0 6 373"><path d="M5.5 3V.5h-5V3h5zm-5 367v2.5h5V370h-5zM.5 3.051v2.5h5v-2.5h-5zm5 17.374v-2.5h-5v2.5h5zm-5 .102v2.5h5v-2.5h-5zm5 17.374v-2.5h-5v2.5h5zm-5 .102v2.5h5v-2.5h-5zm5 17.374v-2.5h-5v2.5h5zm-5 .103v2.5h5v-2.5h-5zm5 17.374v-2.5h-5v2.5h5zm-5 .102v2.5h5v-2.5h-5zm5 17.374v-2.5h-5v2.5h5zm-5 .102v2.5h5v-2.5h-5zm5 17.374v-2.5h-5v2.5h5zm-5 .102v2.5h5v-2.5h-5zm5 17.374v-2.5h-5v2.5h5zm-5 .102v2.5h5v-2.5h-5zm5 17.374v-2.5h-5v2.5h5zm-5 .103v2.5h5v-2.5h-5zm5 17.374v-2.5h-5v2.5h5zm-5 .102v2.5h5v-2.5h-5zm5 17.374v-2.5h-5v2.5h5zm-5 .102v2.5h5v-2.5h-5zm5 17.374v-2.5h-5v2.5h5zm-5 .102v2.5h5v-2.5h-5zm5 17.374v-2.5h-5v2.5h5zm-5 .102v2.5h5v-2.5h-5zm5 17.374v-2.5h-5v2.5h5zm-5 .103v2.5h5v-2.5h-5zm5 17.374v-2.5h-5v2.5h5zm-5 .102v2.5h5v-2.5h-5zm5 17.374v-2.5h-5v2.5h5zm-5 .102v2.5h5v-2.5h-5zm5 17.374v-2.5h-5v2.5h5zm-5 .102v2.5h5v-2.5h-5zm5 17.374v-2.5h-5v2.5h5zm-5 .102v2.5h5v-2.5h-5zm5 17.374v-2.5h-5v2.5h5zm-5 .103v2.5h5v-2.5h-5zm5 17.374v-2.5h-5v2.5h5zm-5 .102v2.5h5v-2.5h-5zm5 17.374v-2.5h-5v2.5h5zm-5 .102v2.5h5v-2.5h-5zm5 17.374v-2.5h-5v2.5h5zM.5 3v.051h5V3h-5zm0 17.425v.102h5v-.102h-5zm0 17.476v.102h5v-.102h-5zm0 17.476v.103h5v-.102h-5zm0 17.477v.102h5v-.102h-5zm0 17.476v.102h5v-.102h-5zm0 17.476v.102h5v-.102h-5zm0 17.476v.102h5v-.102h-5zm0 17.476v.103h5v-.103h-5zm0 17.477v.102h5v-.102h-5zm0 17.476v.102h5v-.102h-5zm0 17.476v.102h5v-.102h-5zm0 17.476v.102h5v-.102h-5zm0 17.476v.103h5v-.103h-5zm0 17.477v.102h5v-.102h-5zm0 17.476v.102h5v-.102h-5zm0 17.476v.102h5v-.102h-5zm0 17.476v.102h5v-.102h-5zm0 17.476v.103h5v-.103h-5zm0 17.477v.102h5v-.102h-5zm0 17.476v.102h5v-.102h-5zm0 17.476V370h5v-.051h-5z" fill="#929292"/></symbol></svg>